<svg xmlns="http://www.w3.org/2000/svg" xmlns:xlink="http://www.w3.org/1999/xlink" width="0" height="0" style="position:absolute">
	
		<symbol id="Arrow-down" viewBox="0 0 18 18">
			<path d="M4.142 11.857a.48.48 0 0 0 .63.047l.054-.047L9 7.629l4.174 4.228a.48.48 0 0 0 .63.047l.054-.047a.495.495 0 0 0 .047-.639l-.047-.055L9.342 6.59a.48.48 0 0 0-.63-.047l-.054.047-4.516 4.574a.495.495 0 0 0 0 .694z" fill="#C73752"></path>
		</symbol>
	
		<symbol id="arrow-left" viewBox="0 0 20 20">
			<path d="M13.359 16.275a.625.625 0 0 0 .06-.813l-.06-.07L7.968 10l5.39-5.391a.625.625 0 0 0 .061-.814l-.06-.07a.625.625 0 0 0-.814-.06l-.07.06L6.64 9.558a.625.625 0 0 0-.06.814l.06.07 5.834 5.833c.244.244.64.244.884 0z" fill="#fff"></path>
		</symbol>
	
		<symbol id="arrow-right" viewBox="0 0 20 20">
			<path d="M6.641 16.275a.625.625 0 0 1-.06-.813l.06-.07L12.033 10 6.64 4.609a.625.625 0 0 1-.06-.814l.06-.07a.625.625 0 0 1 .814-.06l.07.06 5.834 5.833c.222.222.242.57.06.814l-.06.07-5.834 5.833a.625.625 0 0 1-.884 0z" fill="#fff"></path>
		</symbol>
	
		<symbol id="arrow-right-long" viewBox="0 0 32 9">
			<path stroke="#C73752" d="M0 4.5h26"></path><path d="M30.5 3.634a1 1 0 0 1 0 1.732l-3.75 2.165a1 1 0 0 1-1.5-.866v-4.33a1 1 0 0 1 1.5-.866l3.75 2.165z" fill="#C73752"></path>
		</symbol>
	
		<symbol id="bus" viewBox="0 0 24 24">
			<path d="M18.104 19.956H5.896c-.88 0-1.6-.716-1.6-1.596V4c0-.88.716-1.6 1.6-1.6h12.212c.88 0 1.6.716 1.6 1.6v14.36a1.605 1.605 0 0 1-1.604 1.596zM5.896 3.2c-.44 0-.8.36-.8.8v14.36c0 .44.356.796.8.796h12.212c.44 0 .8-.36.8-.796V4a.8.8 0 0 0-.8-.8H5.896z" fill="#3CA3CE"></path><path d="M19.304 15.476H4.696c-.22 0-.4-.18-.4-.4v-9.64c0-.22.18-.4.4-.4h14.608c.22 0 .4.18.4.4v9.636c0 .224-.18.404-.4.404zm-14.208-.8h13.808v-8.84H5.096v8.84z" fill="#3CA3CE"></path><path d="M12 15.476H4.696c-.22 0-.4-.18-.4-.4v-9.64c0-.22.18-.4.4-.4H12c.22 0 .4.18.4.4v9.636c0 .224-.18.404-.4.404zm-6.904-.8H11.6v-8.84H5.096v8.84zM17.708 21.6h-1.792a.794.794 0 0 1-.792-.792v-1.252c0-.22.18-.4.4-.4h2.572c.22 0 .4.18.4.4v1.252a.79.79 0 0 1-.788.792zm-1.784-1.644v.852L17.7 20.8v-.844h-1.776zM8.084 21.6H6.292a.794.794 0 0 1-.792-.792v-1.252c0-.22.18-.4.4-.4h2.572c.22 0 .4.18.4.4v1.252a.788.788 0 0 1-.788.792zM6.3 20.8h1.784l-.008-.844H6.3v.844zm14.728-9.576h-1.724c-.22 0-.4-.18-.4-.4V5.436c0-.22.18-.4.4-.4h1.724c.22 0 .4.18.4.4v5.384a.4.4 0 0 1-.4.404zm-1.324-.8h.924V5.836h-.924v4.588z" fill="#3CA3CE"></path><path d="M4.696 11.224H2.972c-.22 0-.4-.18-.4-.4V5.436c0-.22.18-.4.4-.4h1.724c.22 0 .4.18.4.4v5.384c0 .224-.18.404-.4.404zm-1.324-.8h.924V5.836h-.924v4.588zm4.216 8.092c-.66 0-1.2-.54-1.2-1.2 0-.66.54-1.2 1.2-1.2a1.2 1.2 0 0 1 0 2.4zm0-1.6c-.22 0-.4.18-.4.4 0 .22.18.4.4.4.22 0 .4-.18.4-.4 0-.22-.18-.4-.4-.4zm8.824 1.6c-.66 0-1.2-.54-1.2-1.2 0-.66.54-1.2 1.2-1.2.66 0 1.2.54 1.2 1.2 0 .66-.54 1.2-1.2 1.2zm0-1.6c-.22 0-.4.18-.4.4 0 .22.18.4.4.4.22 0 .4-.18.4-.4 0-.22-.18-.4-.4-.4zm-2.544 0h-3.74c-.22 0-.4-.18-.4-.4 0-.22.18-.4.4-.4h3.74c.22 0 .4.18.4.4 0 .22-.176.4-.4.4zm0 1.6h-3.74c-.22 0-.4-.18-.4-.4 0-.22.18-.4.4-.4h3.74c.22 0 .4.18.4.4 0 .22-.176.4-.4.4z" fill="#3CA3CE"></path>
		</symbol>
	
		<symbol id="clock" viewBox="0 0 18 18">
			<path d="M9 2a7 7 0 1 0 0 14A7 7 0 0 0 9 2zm2.94 9.94L8.3 9.7V5.5h1.05v3.64l3.15 1.89-.56.91z" fill="#3DA4CE"></path>
		</symbol>
	
		<symbol id="farba" viewBox="0 0 25 37">
			<g clip-path="url(#a)"><path d="M3.757 7.655l4.623-4.54 4.617 4.565-4.642 4.54-4.598-4.565z" fill="#5DAA1A"></path><path d="M16.17.042l.568 1.239c-2.663 1.25-3.347 6.48-3.372 8.397l-.032 11.7-1.36.017.033-11.78c-.02-.32.158-7.687 4.163-9.573z" fill="#5DAA1A"></path><path d="M24.093 13.46l-23.13-.063-.06 22.763 23.129.062.061-22.762z" fill="#E33226"></path><path d="M12.68 15.745l8.905.024-.025 9.025-8.88-9.049z" fill="#fff"></path></g><defs><clipPath id="a"><path fill="#fff" d="M0 0h25v37H0z"></path></clipPath></defs>
		</symbol>
	
		<symbol id="fb" viewBox="0 0 20 20">
			<path d="M9.307 3.721c.586-.52 1.415-.696 2.201-.717.83-.007 1.66-.003 2.49-.003.003.819.003 1.634 0 2.452h-1.609c-.338-.02-.688.221-.75.537-.007.547-.003 1.094-.003 1.641.786.003 1.572 0 2.358.003-.059.792-.164 1.58-.288 2.361-.695.007-1.39 0-2.085.004-.007 2.334.004 4.664-.003 6.998-1.034.003-2.063-.004-3.097.003-.018-2.334 0-4.667-.01-7.001-.503-.004-1.009.003-1.511-.004.004-.784 0-1.569 0-2.35.502-.007 1.008 0 1.51-.004.015-.76-.015-1.525.015-2.286.054-.608.298-1.216.782-1.634z" fill="#C73752"></path>
		</symbol>
	
		<symbol id="globus" viewBox="0 0 32 32">
			<path d="M11.183 6.772c-.215-.356-.441-.69-.666-.993A9.29 9.29 0 0 1 16 4a9.29 9.29 0 0 1 4.811 1.334 4.57 4.57 0 0 1-.088.403c-.141.532-.363 1.04-.551 1.337-.065.102-.332.363-.817.724-.216.161-.456.309-.741.48l-.1.059c-.25.149-.535.319-.811.508-.65.446-1.328 1.048-1.784 2.023a2.817 2.817 0 0 0-.161 1.941c.047.18.073.36.074.52 0 .05-.02.128-.13.22a.699.699 0 0 1-.436.158c-1.436-.017-2.569-1.206-2.733-3.103-.125-1.442-.714-2.779-1.35-3.832zM22.202 19.345c.353-.003.683-.027.994-.067a9.34 9.34 0 0 1-4.557 3.01c-.062-.508-.022-1.12.278-1.684.256-.482.904-.844 1.778-1.06a7.28 7.28 0 0 1 1.48-.198h.027z" fill="#C73752"></path><path d="M6.667 13.333c0-2.292.826-4.392 2.197-6.016.135.191.27.396.401.613.536.887.951 1.888 1.036 2.867.228 2.628 1.976 5.116 4.94 5.15 1.282.014 2.835-.95 2.83-2.624a4.336 4.336 0 0 0-.148-1.087.581.581 0 0 1 .025-.42c.227-.486.563-.81 1.02-1.123.214-.146.436-.278.692-.431l.103-.062c.287-.171.614-.37.93-.606.46-.342 1.054-.823 1.37-1.319.249-.392.48-.895.658-1.417a9.302 9.302 0 0 1 2.612 6.475c0 .71-.079 1.401-.23 2.066-.089.266-.201.515-.403.776-.316.41-.95.914-2.521.93h-.008l-.038.001-.13.004a9.506 9.506 0 0 0-1.843.26c-1.01.248-2.494.812-3.222 2.184-.574 1.082-.639 2.194-.51 3.103a9.333 9.333 0 0 1-9.762-9.324z" fill="#C73752"></path><path fill-rule="evenodd" clip-rule="evenodd" d="M24.005 2a1 1 0 0 1 1.412-.078 14.716 14.716 0 0 1 4.916 10.994c0 7.669-5.851 13.97-13.333 14.683v.734h1.667a1 1 0 1 1 0 2h-5.334a1 1 0 0 1 0-2H15v-.678A14.716 14.716 0 0 1 4.588 22.75a1 1 0 1 1 1.49-1.334 12.717 12.717 0 0 0 9.505 4.25c7.042 0 12.75-5.708 12.75-12.75 0-3.776-1.64-7.168-4.25-9.504A1 1 0 0 1 24.005 2z" fill="#C73752"></path>
		</symbol>
	
		<symbol id="inst" viewBox="0 0 20 20">
			<path d="M10 7.334A2.669 2.669 0 0 0 7.334 10 2.669 2.669 0 0 0 10 12.666 2.669 2.669 0 0 0 12.666 10 2.669 2.669 0 0 0 10 7.334z" fill="#C73752"></path><path d="M13.21 3H6.79C4.7 3 3 4.7 3 6.79v6.42C3 15.3 4.7 17 6.79 17h6.42C15.3 17 17 15.3 17 13.21V6.79C17 4.7 15.3 3 13.21 3zM10 13.828A3.832 3.832 0 0 1 6.172 10 3.832 3.832 0 0 1 10 6.172 3.832 3.832 0 0 1 13.828 10 3.832 3.832 0 0 1 10 13.828zm3.92-6.753a1.132 1.132 0 0 1 0-2.263 1.132 1.132 0 0 1 0 2.262z" fill="#C73752"></path>
		</symbol>
	
		<symbol id="logo" viewBox="0 0 195 116">
			<path d="M1.222 90.29zM1.621 90.232c1.533-.228 3.06-.526 4.697-.847 7.694-1.507 17.857-3.498 42.738-.827C66.499 90.195 68.77 89.901 80 88.445c2.425-.315 5.268-.684 8.771-1.099 16.467-1.95 30.926-.464 37.693.232 1.34.138 2.378.245 3.071.288 1.484.092 4.317.412 7.635.787 6.047.684 13.707 1.55 17.765 1.55 3.974.364 13.899-.844 20.359-1.63 2.765-.336 4.895-.595 5.653-.62-6.023 2.279-23.201 6.008-43.731 2.683-2.227-.36-4.254-.693-6.113-.998-19.57-3.206-20.578-3.37-40.586-1.772-6.721 1.414-21.892 4.172-28.805 3.895-6.913-.277-18.301-1.616-23.13-2.25-4.278-.918-17.624-2.045-36.96.72zM0 98.946c20.588-4.982 27.501-3.877 43.39-1.337h.002c.952.153 1.936.31 2.958.472 8.06 1.442 27.652 3.341 41.548-.606 13.19-3.747 27.271-1.503 39.971.52 3.185.508 6.284 1.002 9.259 1.384 10.963 1.812 20.311.465 29.356-.838 8.478-1.222 16.69-2.406 25.719-.912-3.514-.532-12.754-.863-26.182 2.616-13.645 3.535-27.502.867-39.941-1.527-7.057-1.358-13.657-2.629-19.502-2.629-6.237-.421-14.035 1.288-21.592 2.945-6.404 1.403-12.636 2.769-17.6 2.769-12.115.502-19.72-1.225-26.974-2.872-10.255-2.328-19.809-4.497-40.412.015zM192.818 97.734z" fill="#3DA4CE"></path><path d="M41.71 93.564c3.814.52 7.087.967 9.702.967 4.394.953 16.76 1.94 31.075-1.731 17.894-4.588 33.867-1.731 41.636 0 .771.172 1.588.376 2.473.597 8.018 2.006 21.548 5.39 56.533-1.55-6.197 2.28-23.917 6.441-45.215 4.849-6.347-.475-11.052-1.255-15.386-1.973-9.254-1.533-16.815-2.786-35.066-.192-4.713.75-16.27 2.164-24.79 1.818-9.812-.399-21.18-2.047-24.818-2.574l-.757-.11c-2.444-.346-17.981-1.99-31.249.174 14.05-3.254 26.564-1.545 35.862-.275z" fill="#3DA4CE"></path><path fill-rule="evenodd" clip-rule="evenodd" d="M93.498 37.97c.899-.619 1.784-1.228 3.304-.746 1.222-.346 2.095-.087 4.102 1.212-.262 2.597-5.412 5.54-8.641.26.45-.184.844-.456 1.235-.726zm1.057.97c.282-.176 1.052-.496 2.069-.245h.006c.604-.085 1.597-.136 2.494.329.014.007.013.026 0 .03-.947.344-3.12.786-4.569-.085a.017.017 0 0 1 0-.028z" fill="#C73752"></path><path d="M88.422.173c-.768.346-1.193 1.876-1.31 2.597 6.216 0 12.076 3.117 14.229 4.675C98.809 3.203 89.382-.26 88.422.173zM85.367 16.015c-38.406-18.525-24.179 9.695.35 23.46-.42-.831-2.62-6.29-3.667-8.917-1.92-1.212-2.531-5.194-2.531-6.838 0-1.316.93-1.126 1.396-.866 1.31-2.337 2.619-3.463 3.58-4.242.767-.623 1.308-.26 1.483 0 8.738 4.613 31.734 22.176 43.624 31.256l.044.033c1.301.994 2.468 1.885 3.467 2.645-6.023-7.531-31.249-27.874-47.746-36.531z" fill="#191919"></path><path d="M107.671 40.205c.243-.26 1.293-1.386 1.613-.99.349.433.433 1.544.349 2.337-.08.753-.713 2.221-1.536 4.131-2.773 6.438-7.707 17.889-.908 23.83-1.804 1.183-5.464 1.524-5.674-6.579-.185-7.17 1.161-10.002 2.737-13.318.651-1.368 1.34-2.817 1.977-4.688.407-1.01 1.257-3.358 1.396-4.674l.005-.005.008-.009.011-.01.022-.025zM79.693 52.72c4.714-5.54 13.966-11.774 18.593 2.943-6.285-11.947-9.69-9.61-18.593-2.944zM20.687 71.418C15.8 70.552 4.975 75.746 6.11 81.546c.495 1.53 3.212 4.242 10.125 2.857 7.784-1.56 15.425-11.055 17.185-13.241.194-.241.317-.394.36-.437.12-.119.657-.802 1.403-1.752 1.964-2.5 5.378-6.844 6.453-7.597.786-.55-.262 2.078-.436 2.51-.815 2.05-2.584 6.805-3.143 9.436-1.134 2.597-3.142 6.753-3.317 7.099-.174.346.175 1.99 1.92 1.039.193-.286.464-.711.804-1.248 2.143-3.367 7.055-11.09 12.552-15.72 2.466-1.738 1.554.498.386 3.36-.403.987-.836 2.048-1.172 3.046-.188.562-.402 1.157-.624 1.773-1.317 3.663-2.902 8.075-1.034 10.52 1.833 1.299 4.015.173 5.15-1.299.058-.519-.088-1.298-1.135-.26-1.31 1.3-3.754 2.253-3.055-2.25.524-3.376 2.968-10.215 5.76-16.015.466-.865.716-2.285-2.007-1.039-3.404 1.559-7.556 5.627-12.133 10.994-.233.231-.709.256-.349-.779l.087-.249c.948-2.73 3.45-9.936 4.888-11.697 1.06-1.299-2.444-1.991-4.888.52-4.8 6.146-14.594 18.092-21.298 20.862-6.11 3.636-15.712 1.731-8.729-5.194 1.106-.981 4.016-3.134 6.809-3.895 1.108-.303 2.058-.518 2.793-.684 1.583-.359 2.175-.493 1.222-.788zM57.959 74.88c.32-.576.558-1.558-1.048-.865-2.007.866-2.618 5.02-2.706 5.973-.087.952.437 2.51 1.834 2.25.984-.182 2.315-1.828 3.26-2.995.395-.489.723-.894.93-1.073.344-.299.221.224.04.996-.187.794-.435 1.851-.303 2.553.262 1.386 1.572 2.338 3.666 1.645.582-.086 2.34-.9 4.714-3.463.087-.028.192.191.262.953.087.952 1.31 1.904 1.833 2.077.524.174 4.452.693 7.769-3.462.058-.058.192-.139.261 0 .012.022.02.096.033.208.085.748.364 3.202 3.022 3.427 2.72.232 5.161-2.005 6.035-2.805.108-.1.192-.177.25-.224.524-.433 2.531-2.51 2.357-3.03-.146-.433-1.507 1.062-2.106 1.72-.119.13-.208.228-.25.27l-.025.025-.019.02c-.519.53-4.566 4.662-7.115 1.774-1.833-2.078 1.397-7.532 3.754-7.532.524-.029 1.414.312.785 1.905-.261.692.262.692.437.606.174-.087 1.396-.952 1.571-3.203.141-1.818-4.19-.433-5.935 1.558a92.257 92.257 0 0 0-1.733 2.388c-1.79 2.527-3.019 4.26-5.076 4.797-1.658.635-4.818.97-4.19-2.77.786-4.675 3.754-5.367 4.277-5.194.524.173 1.048.433.611 2.25 0 .434.699 0 1.135-.519.437-.52 1.659-2.337-.087-3.116-1.746-.78-5.237 2.164-5.936 3.116-.814 1.674-3.03 5.051-4.713 6.233-2.095 1.472-4.364 1.731-3.928-.952.29-1.299 1.42-4.262 3.055-6.58.611-.865-.437-2.683-1.571-1.47-1.135 2.221-3.928 6.96-6.023 8.136-2.619 1.472-.35-4.76.873-5.626zM84.756 21.642c.524 1.443 2.706 4.103 7.245 3.203-1.397.923-5.045 2.043-8.467-.866.35-.057 1.082-.19 1.222-.26.087 0 .21-.415 0-2.077zM109.197 9.695c3.578-2.077 10.701-3.947 10.561 5.194-.262.26-1.222-.605-1.484-1.99-.904-4.564-6.294-3.374-7.651-3.074l-.204.044c-.699.138-1.106-.058-1.222-.174zM121.591 13.072c2.794 2.51 3.405 10.82-5.586 9.955 7.205-1.998 6.571-5.087 5.849-8.602-.091-.445-.184-.896-.263-1.353z" fill="#191919"></path><path d="M84.407 8.137c-.058-.75.07-2.233 1.047-2.164 1.222.087 12.482 1.472 22.695 10.302.815-1.183 3.107-3.688 5.761-4.242-.411.85-1.32 1.793-2.183 2.688-1.335 1.384-2.559 2.654-1.658 3.285.611.462 1.956 1.662 2.444 2.77-.296-.098-.844-.497-1.594-1.044h-.001c-.356-.26-.757-.552-1.198-.86-1.484-1.04-.087 4.76 5.499 7.271.291.202.388.709-1.309.174-1.92-.607-6.896-3.636-6.11-8.57.029-.232-.052-.728-.611-.866-.113-.028-.432-.249-.944-.604-2.653-1.837-10.498-7.269-21.838-8.14zM119.147 25.624c5.15.346 15.014-1.558 16.236-9.955-3.055 6.232-9.427 8.656-16.236 9.955zM118.559 28.495c2.307 1.448 7.077 4.442 15.951 4.4.436.347-1.554 1.524-6.721.693-5.168-.831-8.322-3.751-9.253-5.107l.023.014zM89.295 42.678c3.055 3.116 7.926 6.856 13.442 1.385-1.833 3.895-8.641 5.627-13.442-1.385z" fill="#191919"></path><path fill-rule="evenodd" clip-rule="evenodd" d="M180.336 72.57c1.047 1.732-.669 4.589-1.659 5.8-.349.693.175 1.04.611.693.266-.21.662-.775.988-1.242.212-.3.393-.561.496-.662.236-.235.26-.187.327-.048v.002l.022.046c.088.173.175 1.471-.174 2.423-.301.53-1.498 2.166-2.895 4.073-2.25 3.075-5.02 6.859-5.398 7.874a3.232 3.232 0 0 1-.036.086c-.38.913-3.034 7.283.647 5.54 3.841-1.817 7.769-10.993 7.944-11.513.036-.108.061-.226.085-.347.098-.462.201-.951.962-.951 5.766 1.933 10.853-3.854 11.814-4.947a4.41 4.41 0 0 1 .144-.16c.35-.347 1.222-1.992.175-1.732-4.277 5.194-6.459 5.8-7.158 5.973-.698.173-1.571.173-1.047-.173 4.713-3.636 5.761-10.129 5.237-11.427-.524-1.299-1.571-1.212-2.706-.78-1.454.347-3.217 3.036-4.336 4.742-.561.855-.959 1.463-1.076 1.405-.219-.109-.197-1.041-.172-2.084.015-.614.031-1.266-.002-1.811-.087-1.472-3.579-2.078-2.793-.78zm8.379-.2c-2.933.831-5.237 6.58-6.023 9.35 0 .605.611 1.298 1.572 1.644 2.531-.779 4.8-6.579 4.888-7.098.005-.035.014-.084.026-.144.147-.818.677-3.752-.463-3.752zm-15.45 23.114c-.628-2.147 4.452-9.552 7.071-12.985-.013.011-.007.073.001.185.053.693.25 3.305-2.533 7.779-3.229 5.194-4.277 5.367-4.539 5.02z" fill="#191919"></path><path d="M123.075 72.63c-.558.277-1.746.52-2.269.606-1.921.463-12.395.26-8.991-5.454 2.723-4.57 10.271-7.618 13.704-8.57 17.894-5.194 13.792 6.579 12.22 10.475-.743 1.842-.872 2.222-.698 2.25 2.968-3.809 8.903-10.388 11.609-8.83 3.231 1.861.175 10.821-.174 11.34-.349.52-.698 1.645-.611 1.732.087.087.262 0 .524-.26l6.721-6.665c2.298-2.164 7.122-6.025 8.03-4.156 1.055 2.174-.607 5.844-1.055 6.835l-.001.001-.079.176c-.026.062-.08.18-.157.346-.68 1.481-3.134 6.826-3.683 10.562-.489 3.324 1.716 2.597 2.88 1.818.379-.289 1.187-.78 1.397-.433.209.346-.029.664-.175.78-2.007 1.557-3.491 1.298-4.888.865-1.396-.433-.785-4.156-.262-6.666.419-2.008 2.91-7.589 4.103-10.128.349-.75.942-2.39.524-2.944-.419-.554-2.037.462-2.794 1.04-4.451 3.375-10.717 10.82-14.14 16.1-.786 1.213-1.31 1.386-2.095 1.04-.629-.277-.378-1.27-.175-1.732 1.571-2.77 3.841-7.445 5.238-12.465 1.55-5.574.436-6.262-.524-5.974-4.103.693-12.657 12.206-16.41 18.872-.426.756-1.135 1.818-2.008 1.385-.698-.346-.291-1.356 0-1.818 1.92-2.597 3.928-5.627 6.896-13.417 3.373-8.856-.611-10.562-3.23-10.389-8.599.158-15.964 6.223-17.654 7.615h-.001a7.976 7.976 0 0 1-.326.263c-.611.433-2.619 2.164-1.484 4.155 1.135 1.991 6.809 1.299 8.642.866 1.466-.346 1.891-.202 1.92-.087.058.174.035.589-.524.866z" fill="#191919"></path><path fill-rule="evenodd" clip-rule="evenodd" d="M168.639 74.215c-1.202-.447-2.404 1.928-2.771 2.653-.06.118-.097.192-.109.204-.025.132-.057.287-.093.46-.34 1.65-1.017 4.932.878 5.167 1.963.243 4.386-3.693 5.042-4.76a12.656 12.656 0 0 0 .108-.174c.126-.2.302-.614.487-1.05.459-1.077.972-2.285.91-.682-.052 1.339-.413 2.923-.697 4.17-.193.848-.351 1.54-.351 1.89a1.19 1.19 0 0 1-.785 1.125c-12.29 3.394-16.701 8.801-17.37 11.08-.437.347-1.833 9.35 7.07 7.186 8.205-1.995 12.133-14.976 12.482-16.534.328-1.465 1.582-1.018 1.948-.887.025.009.044.016.06.02.082.028.183.116.286.207.225.197.468.41.586.054.262-.866-.523-1.04-1.047-1.126-.15-.025-.3-.021-.445-.017-.358.008-.678.016-.864-.416-.114-.263.284-2.265.728-4.492.576-2.89 1.225-6.16.93-6.502-.419-.484-1.105-.317-1.396-.173-.094 0-.667 1.025-1.407 2.349-.637 1.14-1.398 2.503-2.085 3.624-1.459 2.383-2.357 3.463-3.23 3.463-.872 0-.785-1.904-.174-3.116.111-.22.247-.474.393-.744.655-1.219 1.488-2.766.916-2.979zm-13.006 25.078c-3.229-8.051 9.136-13.303 15.974-15.15 0 2.77-2.008 11.029-6.896 14.284-4.888 3.255-8.088 1.933-9.078.866z" fill="#191919"></path><path d="M16.41 107.087v-.665h3.729v.665H18.63v5.153h-.713v-5.153H16.41zM27.724 106.422l-2.757 5.818h-.796l.754-1.721-1.936-4.097h.88l1.726 3.906-.444-.033 1.776-3.873h.797zM30.911 106.422h.712v5.818h-.712v-5.818zm.394.665v-.665h1.198c.38 0 .718.072 1.014.216.302.139.54.338.713.599.178.26.268.57.268.93 0 .355-.09.665-.268.931-.174.261-.411.463-.713.607a2.374 2.374 0 0 1-1.014.208h-1.198v-.665h1.198c.38 0 .688-.092.922-.274.24-.183.36-.452.36-.807 0-.36-.12-.628-.36-.806-.234-.183-.542-.274-.922-.274h-1.198zM43.127 107.212l-5.111 5.318.042-1.08 5.111-5.319-.041 1.081zm-4.399-.79v5.194l-.712.914v-6.108h.712zm4.441-.291v6.109h-.712v-5.194l.712-.915zM47.446 109.331c0 .449.1.845.302 1.188.207.344.475.612.804.806.33.194.688.291 1.073.291.28 0 .533-.036.763-.108.234-.072.446-.172.636-.299.19-.133.352-.285.486-.457v.931a2.52 2.52 0 0 1-.804.482c-.29.105-.65.158-1.081.158-.408 0-.79-.072-1.148-.216a2.951 2.951 0 0 1-.93-.624 2.939 2.939 0 0 1-.629-.955 3.11 3.11 0 0 1-.226-1.197c0-.432.075-.831.226-1.197.151-.365.36-.681.629-.947.268-.272.578-.479.93-.624.358-.149.74-.224 1.148-.224.43 0 .79.053 1.08.158.291.105.56.266.805.482v.931a2.07 2.07 0 0 0-.486-.449 2.256 2.256 0 0 0-.636-.307 2.534 2.534 0 0 0-.763-.108c-.386 0-.743.096-1.073.29-.33.194-.597.463-.804.806-.201.338-.302.735-.302 1.189zM54.437 107.087v-.665h3.73v.665h-1.51v5.153h-.711v-5.153h-1.509zM66.545 107.212l-5.112 5.318.042-1.08 5.111-5.319-.041 1.081zm-4.4-.79v5.194l-.712.914v-6.108h.712zm4.441-.291v6.109h-.712v-5.194l.713-.915zM72.204 109.913v-.624h1.818v.624h-1.818zm1.34-3.491h.713v5.818h-.712v-5.818zm-2.43 0v1.513c0 .249.04.476.118.681.084.205.207.369.369.491a.98.98 0 0 0 .603.182v.624c-.385 0-.71-.086-.972-.258a1.664 1.664 0 0 1-.595-.715 2.52 2.52 0 0 1-.193-1.005v-1.513h.67zM78.507 112.24v-.665h2.959v.665h-2.959zm0-5.153v-.665h2.959v.665h-2.959zm0 2.327v-.665h2.79v.665h-2.79zm-.393-2.992h.712v5.818h-.712v-5.818zM85.653 109.331c0 .449.101.845.302 1.188.207.344.475.612.805.806.33.194.687.291 1.072.291.28 0 .534-.036.763-.108a2.41 2.41 0 0 0 .637-.299c.19-.133.352-.285.486-.457v.931a2.52 2.52 0 0 1-.805.482c-.29.105-.65.158-1.08.158-.409 0-.791-.072-1.149-.216a2.95 2.95 0 0 1-.93-.624 2.939 2.939 0 0 1-.628-.955 3.112 3.112 0 0 1-.227-1.197c0-.432.076-.831.227-1.197.15-.365.36-.681.628-.947.268-.272.578-.479.93-.624.358-.149.74-.224 1.148-.224.43 0 .79.053 1.081.158.29.105.559.266.805.482v.931a2.067 2.067 0 0 0-.486-.449 2.254 2.254 0 0 0-.637-.307 2.536 2.536 0 0 0-.763-.108c-.385 0-.743.096-1.072.29-.33.194-.598.463-.805.806-.2.338-.302.735-.302 1.189zM93.485 106.422h.712v5.818h-.712v-5.818zm3.017 0h.88l-2.54 2.726 2.665 3.092h-.88l-2.648-3.075 2.523-2.743zM100.739 109.331c0 .438.095.828.284 1.172.196.343.461.615.796.814.336.2.716.299 1.14.299.43 0 .81-.099 1.14-.299a2.13 2.13 0 0 0 .787-.814c.196-.344.294-.734.294-1.172 0-.438-.098-.828-.294-1.172a2.13 2.13 0 0 0-.787-.814c-.33-.2-.71-.299-1.14-.299-.424 0-.804.099-1.14.299-.335.199-.6.471-.796.814a2.392 2.392 0 0 0-.284 1.172zm-.755 0c0-.427.073-.82.218-1.18.151-.366.361-.682.629-.948.268-.271.583-.482.947-.631a2.977 2.977 0 0 1 1.181-.233c.43 0 .824.078 1.182.233a2.838 2.838 0 0 1 1.567 1.579c.15.36.226.753.226 1.18 0 .421-.076.814-.226 1.18a2.848 2.848 0 0 1-.62.956 3.014 3.014 0 0 1-.947.631c-.358.15-.752.225-1.182.225-.424 0-.818-.075-1.181-.225a2.991 2.991 0 0 1-.947-.631 2.95 2.95 0 0 1-.629-.956 3.173 3.173 0 0 1-.218-1.18zM109.847 112.24v-.665h2.958v.665h-2.958zm0-5.153v-.665h2.958v.665h-2.958zm0 2.327v-.665h2.791v.665h-2.791zm-.394-2.992h.713v5.818h-.713v-5.818zM122.162 110.494l.252-.665h2.597l.252.665h-3.101zm1.534-2.759l-.989 2.311-.067.149-.872 2.045h-.796l2.724-6.109 2.723 6.109h-.796l-.855-1.995-.067-.166-1.005-2.344zM129.646 106.422h2.891v.665h-2.178v5.153h-.713v-5.818zM136.196 112.24v-.665h2.958v.665h-2.958zm0-5.153v-.665h2.958v.665h-2.958zm0 2.327v-.665h2.79v.665h-2.79zm-.394-2.992h.712v5.818h-.712v-5.818zM143.317 109.414v-.665h4.022v.665h-4.022zm3.544-2.992h.712v5.818h-.712v-5.818zm-3.938 0h.712v5.818h-.712v-5.818zM151.846 109.331c0 .449.1.845.301 1.188.207.344.475.612.805.806.33.194.687.291 1.073.291.279 0 .533-.036.762-.108.235-.072.447-.172.637-.299.19-.133.352-.285.486-.457v.931a2.52 2.52 0 0 1-.805.482c-.29.105-.65.158-1.08.158-.408 0-.791-.072-1.148-.216a2.964 2.964 0 0 1-.931-.624 2.942 2.942 0 0 1-.628-.955 3.108 3.108 0 0 1-.226-1.197c0-.432.075-.831.226-1.197.151-.365.36-.681.628-.947.269-.272.579-.479.931-.624.357-.149.74-.224 1.148-.224.43 0 .79.053 1.08.158.291.105.559.266.805.482v.931a2.067 2.067 0 0 0-.486-.449 2.251 2.251 0 0 0-.637-.307 2.532 2.532 0 0 0-.762-.108c-.386 0-.743.096-1.073.29-.33.194-.598.463-.805.806-.201.338-.301.735-.301 1.189zM158.837 107.087v-.665h3.729v.665h-1.509v5.153h-.712v-5.153h-1.508zM166.394 109.165v-.391h.947c.195 0 .371-.033.528-.1a.844.844 0 0 0 .369-.29.795.795 0 0 0 .134-.466c0-.277-.098-.49-.294-.64-.195-.155-.441-.232-.737-.232h-.796v4.57h.88c.251 0 .472-.044.662-.133a1.02 1.02 0 0 0 .452-.382 1.06 1.06 0 0 0 .168-.607 1.16 1.16 0 0 0-.092-.473.915.915 0 0 0-.269-.349 1.04 1.04 0 0 0-.402-.208 1.694 1.694 0 0 0-.519-.075h-1.031v-.391h1.031c.285 0 .547.031.787.092.241.061.45.155.629.282.184.122.327.28.427.474.101.194.151.424.151.69 0 .382-.089.701-.268.956a1.612 1.612 0 0 1-.712.565 2.642 2.642 0 0 1-1.014.183h-1.592v-5.818h1.508c.352 0 .656.053.913.158.263.105.467.266.612.482.145.211.218.482.218.815 0 .271-.073.504-.218.698a1.33 1.33 0 0 1-.612.44c-.257.1-.561.15-.913.15h-.947zM173.438 109.331c0 .438.095.828.285 1.172.195.343.461.615.796.814.335.2.716.299 1.14.299.429 0 .81-.099 1.14-.299a2.13 2.13 0 0 0 .787-.814c.196-.344.293-.734.293-1.172 0-.438-.097-.828-.293-1.172a2.13 2.13 0 0 0-.787-.814c-.33-.2-.711-.299-1.14-.299-.424 0-.805.099-1.14.299a2.19 2.19 0 0 0-.796.814c-.19.344-.285.734-.285 1.172zm-.754 0c0-.427.072-.82.218-1.18.15-.366.36-.682.628-.948.268-.271.584-.482.947-.631a2.982 2.982 0 0 1 1.182-.233c.429 0 .824.078 1.182.233a2.834 2.834 0 0 1 1.566 1.579c.152.36.227.753.227 1.18 0 .421-.075.814-.227 1.18a2.818 2.818 0 0 1-.62.956 3.01 3.01 0 0 1-.946.631c-.358.15-.753.225-1.182.225-.424 0-.819-.075-1.182-.225a3.003 3.003 0 0 1-.947-.631 2.93 2.93 0 0 1-.628-.956 3.153 3.153 0 0 1-.218-1.18z" fill="#000"></path>
		</symbol>
	
		<symbol id="marker" viewBox="0 0 18 18">
			<path d="M8.995 1.5c3.497 0 6.38 2.788 6.38 6.238 0 1.739-.632 3.353-1.673 4.72a16.55 16.55 0 0 1-4.156 3.856c-.364.239-.693.257-1.093 0a16.231 16.231 0 0 1-4.155-3.855c-1.042-1.368-1.673-2.982-1.673-4.72 0-3.45 2.883-6.239 6.37-6.239zm0 4.333a2.11 2.11 0 0 0-2.1 2.1c0 1.155.944 2.064 2.1 2.064 1.157 0 2.11-.909 2.11-2.064 0-1.147-.953-2.1-2.11-2.1z" fill="#3DA4CE"></path>
		</symbol>
	
		<symbol id="message" viewBox="0 0 18 18">
			<path d="M12.457 2.7A3.54 3.54 0 0 1 16 6.235v5.53a3.54 3.54 0 0 1-3.543 3.535H5.542A3.54 3.54 0 0 1 2 11.765v-5.53A3.535 3.535 0 0 1 5.542 2.7h6.915zm.792 3.64a.532.532 0 0 0-.393.14L9.7 9a1.096 1.096 0 0 1-1.4 0L5.15 6.48a.535.535 0 1 0-.75.749l.092.09 3.185 2.486a2.2 2.2 0 0 0 2.736 0l3.158-2.527.056-.056a.541.541 0 0 0-.008-.7.589.589 0 0 0-.37-.182z" fill="#3DA4CE"></path>
		</symbol>
	
		<symbol id="phone" viewBox="0 0 18 18">
			<path fill-rule="evenodd" clip-rule="evenodd" d="M8.649 9.354c2.992 2.991 3.67-.469 5.575 1.435 1.837 1.836 2.892 2.203.565 4.53-.291.234-2.143 3.052-8.65-3.454-6.51-6.507-3.693-8.36-3.459-8.652C5.013.88 5.374 1.942 7.21 3.778 9.117 5.682 5.658 6.363 8.65 9.354z" fill="#3DA4CE"></path>
		</symbol>
	
		<symbol id="plane" viewBox="0 0 24 24">
			<path fill-rule="evenodd" clip-rule="evenodd" d="M16.802 4.677a3.99 3.99 0 0 1 2.929-1.195.629.629 0 0 1 .618.618 3.993 3.993 0 0 1-1.195 2.929c-1.748 1.705-4.726 4.556-7.095 6.547a426.658 426.658 0 0 1-3.969 3.298 1.5 1.5 0 0 0-.49 1.575l.547 1.898-.108.108-2.332-2.332-2.332-2.331.108-.107 1.897.546a1.5 1.5 0 0 0 1.576-.49c1.091-1.329 2.19-2.652 3.297-3.968 1.993-2.369 4.844-5.348 6.548-7.095v-.001zm2.942-1.945a4.741 4.741 0 0 0-3.48 1.422c-.828.848-1.648 1.703-2.462 2.565L5.83 3.302A1.413 1.413 0 0 0 4.45 5.75l6.19 4.421c-.335.383-.658.757-.962 1.118a427.023 427.023 0 0 0-3.303 3.976.75.75 0 0 1-.787.245l-1.898-.547a.75.75 0 0 0-.738.19l-.108.108a.75.75 0 0 0 0 1.061l2.332 2.332 2.332 2.332a.75.75 0 0 0 1.06 0l.108-.108a.75.75 0 0 0 .19-.738l-.547-1.898a.75.75 0 0 1 .246-.788c1.097-.9 2.475-2.04 3.975-3.303.359-.301.731-.623 1.11-.955l4.384 6.138a1.412 1.412 0 0 0 2.448-1.379l-3.39-7.909a225.26 225.26 0 0 0 2.584-2.48 4.74 4.74 0 0 0 1.422-3.48 1.378 1.378 0 0 0-1.355-1.354zm-3.232 7.861c-.75.701-1.532 1.42-2.296 2.103l4.429 6.201a.663.663 0 0 0 1.149-.646l-3.282-7.658zm-5.37-.985c.696-.778 1.4-1.547 2.114-2.308L5.533 3.99a.663.663 0 0 0-.646 1.15l6.254 4.468z" fill="#3CA3CE"></path>
		</symbol>
	
		<symbol id="telegram" viewBox="0 0 22 22">
			<path d="M8.848 13.985l-.331 4.653c.473 0 .678-.203.924-.447l2.22-2.121 4.598 3.367c.843.47 1.437.223 1.665-.776l3.018-14.143.001-.001c.268-1.247-.45-1.734-1.272-1.428L1.929 9.88c-1.211.47-1.193 1.145-.206 1.451l4.536 1.411L16.795 6.15c.495-.328.946-.146.575.182l-8.522 7.653z" fill="#039BE5"></path>
		</symbol>
	
		<symbol id="tik" viewBox="0 0 20 20">
			<g clip-path="url(#b)"><path d="M16.134 6.51a3.53 3.53 0 0 1-3.535-3.5h-2.283v6.237l-.002 3.416a2.066 2.066 0 0 1-2.186 2.062 2.057 2.057 0 0 1-.945-.29 2.066 2.066 0 0 1-1.01-1.74 2.067 2.067 0 0 1 2.721-1.992V8.386a4.491 4.491 0 0 0-.658-.049 4.377 4.377 0 0 0-3.288 1.47 4.281 4.281 0 0 0-1.08 2.584 4.276 4.276 0 0 0 1.273 3.331 4.377 4.377 0 0 0 3.095 1.267 4.362 4.362 0 0 0 3.095-1.267 4.273 4.273 0 0 0 1.282-3.04l-.011-5.102a5.769 5.769 0 0 0 3.539 1.203V6.51h-.007z" fill="#C73752"></path></g><defs><clipPath id="a"><path fill="#fff" transform="translate(3 3)" d="M0 0h14v14H0z"></path></clipPath><clipPath id="b"><path fill="#fff" transform="translate(3 3)" d="M0 0h14v14H0z"></path></clipPath></defs>
		</symbol>
	
		<symbol id="viber" viewBox="0 0 24 24">
			<path d="M16.726 14.427c-.556-.468-.812-.61-1.58-1.07-.319-.191-.806-.357-1.061-.357-.175 0-.384.133-.512.261-.328.329-.435.739-1.01.739-.563 0-1.545-.572-2.25-1.313C9.573 11.983 9 11 9 10.438c0-.574.403-.69.731-1.018.128-.127.27-.336.27-.511 0-.255-.166-.735-.358-1.054-.46-.768-.601-1.024-1.07-1.58-.158-.187-.339-.273-.528-.274-.32 0-.739.158-1.023.37-.427.318-.873.752-.993 1.292a1.285 1.285 0 0 0-.028.221c-.023.563.198 1.134.436 1.617.562 1.14 1.305 2.242 2.113 3.227.259.316.54.608.832.891.283.291.576.573.89.832.986.809 2.089 1.552 3.228 2.113.48.236 1.043.453 1.6.437.08-.003.16-.012.239-.029.54-.119.973-.566 1.292-.993.211-.284.37-.703.37-1.023-.001-.189-.087-.37-.275-.528zM17 12a.5.5 0 0 1-.5-.5V11c0-2.481-2.019-4.5-4.5-4.5a.5.5 0 0 1 0-1c3.033 0 5.5 2.468 5.5 5.5v.5a.5.5 0 0 1-.5.5zm-3.07-1a.5.5 0 0 1-.484-.374 1.494 1.494 0 0 0-1.07-1.071.5.5 0 0 1 .25-.968 2.497 2.497 0 0 1 1.787 1.787.5.5 0 0 1-.484.626z" fill="#7E57C2"></path><path d="M15.5 11.5a.5.5 0 0 1-.5-.5 2.997 2.997 0 0 0-2.839-2.993.5.5 0 1 1 .053-.998A3.996 3.996 0 0 1 16 11a.5.5 0 0 1-.5.5z" fill="#7E57C2"></path><path d="M12 2c-2.25 0-5.756.207-7.892 2.158C2.598 5.661 2 7.77 2 10.5l.001.75c-.002.271 0 .524 0 .75 0 2.729.597 4.838 2.107 6.341.251.23.522.435.807.618C6.06 19.696 7 20.826 7 22.188c0 .797.525.812.62.812h.005c.247-.001.46-.122.675-.312.048-.043.404-.435.9-.988.709-.79 1.74-1.2 2.8-1.2 2.25 0 5.755-.207 7.892-2.159C21.402 16.838 22 14.73 22 12l-.001-.75c.002-.272 0-.523 0-.75 0-2.729-.597-4.838-2.107-6.342C17.756 2.207 14.25 2 12 2zm8.5 9.825V12c0 2.453-.522 4.124-1.643 5.256C16.917 19 13.22 19 12 19c-.271 0-.666 0-1.136-.02a1.158 1.158 0 0 0-.913.38l-.449.502C8.976 20.45 8 20.078 8 19.288a.912.912 0 0 0-.654-.858c-.82-.257-1.597-.63-2.203-1.174-1.12-1.132-1.643-2.803-1.643-5.257v-.174l.001-.586V10.5c0-2.453.522-4.125 1.642-5.256C7.083 3.5 10.782 3.5 12 3.5c1.219 0 4.916 0 6.857 1.744C19.977 6.375 20.5 8.047 20.5 10.5v.174l-.001.587.001.565z" fill="#7E57C2"></path>
		</symbol>
	
		<symbol id="vk" viewBox="0 0 20 20">
			<path d="M18.899 14.934a1.369 1.369 0 0 0-.064-.125c-.33-.603-.96-1.342-1.89-2.219l-.02-.02-.01-.01-.01-.01h-.01c-.421-.408-.688-.683-.8-.824-.205-.267-.251-.538-.139-.812.08-.208.376-.646.89-1.315.271-.355.485-.64.644-.854 1.14-1.54 1.635-2.523 1.483-2.951l-.06-.1c-.039-.061-.141-.116-.306-.166s-.376-.058-.633-.025l-2.849.02a.8.8 0 0 0-.326.035l-.05.025-.04.03a.44.44 0 0 0-.108.106.674.674 0 0 0-.099.176c-.31.81-.663 1.562-1.058 2.259a21.78 21.78 0 0 1-.673 1.079 5.122 5.122 0 0 1-.514.672c-.139.144-.264.26-.376.346-.112.088-.198.124-.257.11a4.535 4.535 0 0 1-.168-.04.66.66 0 0 1-.223-.245 1.12 1.12 0 0 1-.114-.392 4.25 4.25 0 0 1-.034-.406 8.372 8.372 0 0 1 .005-.482c.006-.208.01-.348.01-.422 0-.254.004-.53.014-.828l.025-.708c.007-.173.01-.358.01-.552a2.35 2.35 0 0 0-.035-.457 1.608 1.608 0 0 0-.104-.321.536.536 0 0 0-.203-.24 1.13 1.13 0 0 0-.33-.136c-.35-.08-.796-.124-1.336-.13-1.227-.014-2.015.067-2.365.24a1.337 1.337 0 0 0-.375.302c-.12.147-.136.228-.05.24.396.06.676.205.84.432l.06.12c.046.088.093.242.139.462.046.221.076.465.089.733.033.489.033.907 0 1.255-.033.348-.064.62-.094.813a1.649 1.649 0 0 1-.252.693.174.174 0 0 1-.05.05.736.736 0 0 1-.267.05c-.092 0-.204-.047-.336-.14a2.364 2.364 0 0 1-.411-.387 5.149 5.149 0 0 1-.48-.688 11.944 11.944 0 0 1-.554-1.044l-.158-.291c-.099-.187-.234-.46-.406-.818a15.823 15.823 0 0 1-.455-1.04.665.665 0 0 0-.237-.32l-.05-.03a.665.665 0 0 0-.158-.086 1.051 1.051 0 0 0-.227-.065l-2.71.02c-.278 0-.466.064-.565.19l-.04.06A.329.329 0 0 0 0 5.916c0 .074.02.164.06.27a33.31 33.31 0 0 0 1.29 2.73c.466.878.87 1.584 1.212 2.12.343.535.693 1.04 1.049 1.515.356.475.592.78.707.913.115.135.206.235.272.302l.247.24c.159.161.391.354.698.578.306.224.646.445 1.019.662.372.218.806.395 1.3.532.495.138.976.193 1.444.166h1.138c.231-.02.406-.093.524-.221l.04-.05a.684.684 0 0 0 .074-.186c.023-.083.035-.175.035-.276a3.343 3.343 0 0 1 .064-.778c.05-.23.105-.405.168-.522a1.276 1.276 0 0 1 .381-.442.759.759 0 0 1 .08-.035c.158-.053.344-.001.558.156.215.157.416.35.604.582.188.231.413.49.677.778.264.288.495.502.693.642l.198.121c.132.08.303.154.514.221.211.067.396.084.554.05l2.532-.04c.251 0 .446-.042.584-.126.139-.083.22-.175.247-.276a.785.785 0 0 0 .005-.341 1.26 1.26 0 0 0-.069-.266z" fill="#C73752"></path>
		</symbol>
	
		<symbol id="watsApp" viewBox="0 0 20 20">
			<path fill-rule="evenodd" clip-rule="evenodd" d="M16.799 2.981A9.727 9.727 0 0 0 9.873.11C4.476.11.084 4.502.083 9.9c-.002 1.725.45 3.41 1.306 4.894L0 19.868l5.19-1.362a9.781 9.781 0 0 0 4.679 1.192h.004c5.396 0 9.788-4.392 9.79-9.79A9.73 9.73 0 0 0 16.8 2.98zM5.897 10.256c-.122-.163-.999-1.326-.999-2.53 0-1.205.632-1.797.856-2.041a.899.899 0 0 1 .653-.306c.163 0 .326.001.468.008.15.008.352-.057.55.42.205.49.694 1.694.755 1.817.061.122.102.265.02.428-.08.163-.122.265-.244.408-.122.143-.257.32-.367.429-.123.122-.25.254-.107.499.142.245.633 1.046 1.36 1.695.935.833 1.723 1.091 1.968 1.214.244.122.387.102.53-.061.142-.164.611-.715.774-.96.163-.244.327-.203.55-.122.225.082 1.428.674 1.672.796.245.122.408.184.47.286.06.102.06.591-.143 1.163-.204.571-1.182 1.093-1.652 1.163-.421.063-.955.09-1.54-.097a14.044 14.044 0 0 1-1.395-.515c-2.454-1.06-4.057-3.53-4.18-3.694z" fill="#00973C"></path>
		</symbol>
	
</svg>
