<svg width="18" height="16" viewBox="0 0 18 16" fill="none" xmlns="http://www.w3.org/2000/svg">
<path fill-rule="evenodd" clip-rule="evenodd" d="M10.3995 7.99999L16.7195 14.315C16.8118 14.4067 16.885 14.5158 16.9349 14.6359C16.9849 14.7561 17.0107 14.8849 17.0107 15.015C17.0107 15.1451 16.9849 15.2739 16.9349 15.3941C16.885 15.5142 16.8118 15.6233 16.7195 15.715C16.5321 15.9012 16.2787 16.0058 16.0145 16.0058C15.7503 16.0058 15.4969 15.9012 15.3096 15.715L8.99951 9.39999L2.68945 15.715C2.50209 15.9012 2.24868 16.0058 1.9845 16.0058C1.72031 16.0058 1.4669 15.9012 1.27954 15.715C1.18726 15.6233 1.11406 15.5142 1.06409 15.3941C1.01412 15.2739 0.988281 15.1451 0.988281 15.015C0.988281 14.8849 1.01412 14.7561 1.06409 14.6359C1.11406 14.5158 1.18726 14.4067 1.27954 14.315L7.59949 7.99999L1.27954 1.68499C1.18726 1.59326 1.11406 1.4842 1.06409 1.36407C1.01412 1.24393 0.988281 1.1151 0.988281 0.984993C0.988281 0.854881 1.01412 0.726052 1.06409 0.605919C1.11406 0.485786 1.18726 0.376723 1.27954 0.284996C1.4669 0.0987451 1.72031 -0.00579834 1.9845 -0.00579834C2.24868 -0.00579834 2.50209 0.0987451 2.68945 0.284996L8.99951 6.59999L15.3096 0.284996C15.4969 0.0987451 15.7503 -0.00579834 16.0145 -0.00579834C16.2787 -0.00579834 16.5321 0.0987451 16.7195 0.284996C16.8118 0.376723 16.885 0.485786 16.9349 0.605919C16.9849 0.726052 17.0107 0.854881 17.0107 0.984993C17.0107 1.1151 16.9849 1.24393 16.9349 1.36407C16.885 1.4842 16.8118 1.59326 16.7195 1.68499L10.3995 7.99999Z" fill="white"/>
</svg>
