<svg width="24" height="6" viewBox="0 0 24 6" fill="none" xmlns="http://www.w3.org/2000/svg">
<path d="M0 3.22236C2.57073 -1.3773 3.43402 -0.356984 5.41806 1.988C5.53693 2.12851 5.66005 2.27413 5.78757 2.42311C6.79395 3.75513 9.2405 5.5082 10.9757 1.86364C12.6226 -1.5955 14.3809 0.476309 15.9667 2.34479C16.3645 2.81346 16.7514 3.26935 17.1229 3.62198C18.4918 5.29496 19.6591 4.05134 20.7885 2.84799C21.8472 1.71994 22.8726 -0.378699 24 1C23.5612 0.509583 22.4074 1.20922 20.7306 4.42122C19.0269 7.68486 17.2965 5.22223 15.7433 3.01183C14.8622 1.75766 14.038 0.584845 13.3081 0.584845C12.5293 0.195453 11.5557 1.77349 10.612 3.30292C9.81234 4.59882 9.03424 5.85987 8.41432 5.85987C6.9016 6.32343 5.95198 4.72925 5.0462 3.20861C3.76565 1.0588 2.57267 -0.943952 0 3.22236Z" fill="#3DA4CE"/>
</svg>
