<svg width="190" height="6" viewBox="0 0 190 6" fill="none" xmlns="http://www.w3.org/2000/svg">
<path d="M0 3.22236C20.5658 -1.3773 27.4722 -0.356984 43.3445 1.988L43.3462 1.98833C44.2972 2.12883 45.2804 2.27413 46.3006 2.42311C54.3516 3.75513 73.924 5.5082 87.8054 1.86364C100.981 -1.5955 115.048 0.476309 127.734 2.34479C130.916 2.81346 134.011 3.26935 136.983 3.62198C147.935 5.29496 157.272 4.05134 166.308 2.84799C174.777 1.71994 182.981 0.627208 192 2.00591C188.49 1.51549 179.259 1.20922 165.845 4.42122C152.215 7.68486 138.372 5.22223 125.947 3.01183C118.897 1.75766 112.304 0.584845 106.465 0.584845C100.235 0.195453 92.4454 1.77349 84.8957 3.30292C78.4987 4.59882 72.2739 5.85987 67.3146 5.85987C55.2128 6.32343 47.6158 4.72925 40.3696 3.20861C30.1252 1.0588 20.5813 -0.943952 0 3.22236Z" fill="#3DA4CE"/>
<!-- <path d="M453 3.22236C473.566 -1.3773 480.472 -0.356984 496.344 1.988L496.346 1.98833C497.297 2.12883 498.28 2.27413 499.301 2.42311C507.352 3.75513 526.924 5.5082 540.805 1.86364C553.981 -1.5955 568.048 0.476309 580.734 2.34479C583.916 2.81346 587.011 3.26935 589.983 3.62198C600.935 5.29496 610.272 4.05134 619.308 2.84799C627.777 1.71994 635.981 0.627208 645 2.00591C641.49 1.51549 632.259 1.20922 618.845 4.42122C605.215 7.68486 591.372 5.22223 578.947 3.01183C571.897 1.75766 565.304 0.584845 559.465 0.584845C553.235 0.195453 545.445 1.77349 537.896 3.30292C531.499 4.59882 525.274 5.85987 520.315 5.85987C508.213 6.32343 500.616 4.72925 493.37 3.20861C483.125 1.0588 473.581 -0.943952 453 3.22236Z" fill="#3DA4CE"/> -->
</svg>
