<svg width="24" height="24" viewBox="0 0 24 24" fill="none" xmlns="http://www.w3.org/2000/svg">
<path d="M18.104 19.956H5.89599C5.01599 19.956 4.29599 19.24 4.29599 18.36V4.00002C4.29599 3.12002 5.01199 2.40002 5.89599 2.40002H18.108C18.988 2.40002 19.708 3.11602 19.708 4.00002V18.36C19.704 19.24 18.988 19.956 18.104 19.956ZM5.89599 3.20002C5.45599 3.20002 5.09599 3.56002 5.09599 4.00002V18.36C5.09599 18.8 5.45199 19.156 5.89599 19.156H18.108C18.548 19.156 18.908 18.796 18.908 18.36V4.00002C18.908 3.78785 18.8237 3.58437 18.6737 3.43434C18.5236 3.28431 18.3202 3.20002 18.108 3.20002H5.89599Z" fill="#3CA3CE"/>
<path d="M19.304 15.476H4.69599C4.47599 15.476 4.29599 15.296 4.29599 15.076V5.43601C4.29599 5.21601 4.47599 5.03601 4.69599 5.03601H19.304C19.524 5.03601 19.704 5.21601 19.704 5.43601V15.072C19.704 15.296 19.524 15.476 19.304 15.476ZM5.09599 14.676H18.904V5.83601H5.09599V14.676Z" fill="#3CA3CE"/>
<path d="M12 15.476H4.69599C4.47599 15.476 4.29599 15.296 4.29599 15.076V5.43601C4.29599 5.21601 4.47599 5.03601 4.69599 5.03601H12C12.22 5.03601 12.4 5.21601 12.4 5.43601V15.072C12.4 15.296 12.22 15.476 12 15.476ZM5.09599 14.676H11.6V5.83601H5.09599V14.676ZM17.708 21.6H15.916C15.48 21.6 15.124 21.244 15.124 20.808V19.556C15.124 19.336 15.304 19.156 15.524 19.156H18.096C18.316 19.156 18.496 19.336 18.496 19.556V20.808C18.4965 20.9118 18.4765 21.0147 18.4372 21.1108C18.3978 21.2069 18.3398 21.2942 18.2666 21.3678C18.1934 21.4414 18.1063 21.4998 18.0105 21.5396C17.9146 21.5795 17.8118 21.6 17.708 21.6ZM15.924 19.956V20.808L17.7 20.8V19.956H15.924ZM8.08399 21.6H6.29199C5.85599 21.6 5.49999 21.244 5.49999 20.808V19.556C5.49999 19.336 5.67999 19.156 5.89999 19.156H8.47199C8.69199 19.156 8.87199 19.336 8.87199 19.556V20.808C8.87252 20.9118 8.85252 21.0147 8.81316 21.1108C8.77379 21.2069 8.71583 21.2942 8.64261 21.3678C8.56938 21.4414 8.48234 21.4998 8.38647 21.5396C8.29061 21.5795 8.18781 21.6 8.08399 21.6ZM6.29999 20.8H8.08399L8.07599 19.956H6.29999V20.8ZM21.028 11.224H19.304C19.084 11.224 18.904 11.044 18.904 10.824V5.43601C18.904 5.21601 19.084 5.03601 19.304 5.03601H21.028C21.248 5.03601 21.428 5.21601 21.428 5.43601V10.82C21.428 11.044 21.252 11.224 21.028 11.224ZM19.704 10.424H20.628V5.83601H19.704V10.424Z" fill="#3CA3CE"/>
<path d="M4.69599 11.224H2.97199C2.75199 11.224 2.57199 11.044 2.57199 10.824V5.43601C2.57199 5.21601 2.75199 5.03601 2.97199 5.03601H4.69599C4.91599 5.03601 5.09599 5.21601 5.09599 5.43601V10.82C5.09599 11.044 4.91599 11.224 4.69599 11.224ZM3.37199 10.424H4.29599V5.83601H3.37199V10.424ZM7.58799 18.516C6.92799 18.516 6.38799 17.976 6.38799 17.316C6.38799 16.656 6.92799 16.116 7.58799 16.116C8.24799 16.116 8.78799 16.656 8.78799 17.316C8.78799 17.976 8.25199 18.516 7.58799 18.516ZM7.58799 16.916C7.36799 16.916 7.18799 17.096 7.18799 17.316C7.18799 17.536 7.36799 17.716 7.58799 17.716C7.80799 17.716 7.98799 17.536 7.98799 17.316C7.98799 17.096 7.80799 16.916 7.58799 16.916ZM16.412 18.516C15.752 18.516 15.212 17.976 15.212 17.316C15.212 16.656 15.752 16.116 16.412 16.116C17.072 16.116 17.612 16.656 17.612 17.316C17.612 17.976 17.072 18.516 16.412 18.516ZM16.412 16.916C16.192 16.916 16.012 17.096 16.012 17.316C16.012 17.536 16.192 17.716 16.412 17.716C16.632 17.716 16.812 17.536 16.812 17.316C16.812 17.096 16.632 16.916 16.412 16.916ZM13.868 16.916H10.128C9.90799 16.916 9.72799 16.736 9.72799 16.516C9.72799 16.296 9.90799 16.116 10.128 16.116H13.868C14.088 16.116 14.268 16.296 14.268 16.516C14.268 16.736 14.092 16.916 13.868 16.916ZM13.868 18.516H10.128C9.90799 18.516 9.72799 18.336 9.72799 18.116C9.72799 17.896 9.90799 17.716 10.128 17.716H13.868C14.088 17.716 14.268 17.896 14.268 18.116C14.268 18.336 14.092 18.516 13.868 18.516Z" fill="#3CA3CE"/>
</svg>
