<svg width="195" height="116" viewBox="0 0 195 116" fill="none" xmlns="http://www.w3.org/2000/svg">
    <path d="M1.22207 90.2896C1.35531 90.2709 1.48843 90.2517 1.6215 90.2319C1.48864 90.251 1.35549 90.2702 1.22207 90.2896Z" fill="#3DA4CE"/>
    <path d="M1.62149 90.2319C3.15391 90.0045 4.6801 89.7055 6.31824 89.3847C14.0119 87.8776 24.1752 85.8867 49.0556 88.5582C66.4991 90.1955 68.7708 89.901 79.9996 88.4446C82.4246 88.13 85.2676 87.7614 88.7713 87.3462C105.238 85.3952 119.697 86.8822 126.464 87.5781C127.804 87.7159 128.842 87.8227 129.535 87.8656C131.019 87.9576 133.852 88.2779 137.17 88.6532C143.217 89.3369 150.877 90.203 154.935 90.203C158.909 90.5667 168.834 89.3593 175.294 88.5734C178.059 88.2372 180.189 87.9782 180.947 87.9522C174.924 90.232 157.746 93.9607 137.216 90.6358C134.989 90.2752 132.962 89.9431 131.103 89.6385H131.103C111.533 86.4324 110.525 86.2673 90.5171 87.8656C83.7959 89.2796 68.6254 92.0382 61.7122 91.7612C54.7991 91.4842 43.411 90.1453 38.5811 89.5104C34.3043 88.5933 20.9583 87.4655 1.62149 90.2319Z" fill="#3DA4CE"/>
    <path d="M0 98.9462C20.5876 93.9643 27.5013 95.0694 43.3904 97.6093L43.3921 97.6096C44.3441 97.7618 45.3283 97.9192 46.3496 98.0806C54.4092 99.5233 74.0022 101.422 87.8984 97.4746C101.088 93.728 115.169 95.972 127.869 97.9957C131.054 98.5033 134.153 98.9971 137.128 99.3791C148.091 101.191 157.439 99.8441 166.484 98.5407C174.962 97.3189 183.174 96.1354 192.203 97.6287C188.689 97.0975 179.449 96.7658 166.021 100.245C152.376 103.78 138.519 101.112 126.08 98.7182C119.023 97.3598 112.423 96.0895 106.578 96.0895C100.341 95.6678 92.5433 97.3769 84.9856 99.0335C78.5819 100.437 72.3504 101.803 67.3858 101.803C55.2712 102.305 47.6662 100.578 40.4123 98.9313C30.1571 96.6029 20.6031 94.4337 0 98.9462Z" fill="#3DA4CE"/>
    <path d="M192.818 97.7343C192.638 97.699 192.432 97.6633 192.203 97.6287C192.408 97.6624 192.612 97.6976 192.818 97.7343Z" fill="#3DA4CE"/>
    <path d="M41.7096 93.5635C45.5239 94.0843 48.7968 94.5313 51.4123 94.5313C55.8058 95.4836 68.1715 96.4705 82.4866 92.8C100.381 88.2119 116.354 91.0687 124.123 92.8C124.894 92.9719 125.711 93.1764 126.596 93.3975C134.614 95.4031 148.144 98.7872 183.129 91.8478C176.932 94.1274 159.212 98.2884 137.914 96.6955C131.567 96.2208 126.862 95.4413 122.528 94.7234C113.274 93.1901 105.713 91.9371 87.462 94.5313C82.7485 95.2815 71.1916 96.6955 62.6724 96.3493C52.8602 95.9504 41.4916 94.3021 37.8536 93.7748C37.5432 93.7297 37.2892 93.6929 37.0972 93.6657C34.6531 93.3194 19.116 91.6745 5.84829 93.8388C19.8984 90.5854 32.4123 92.2941 41.7096 93.5635Z" fill="#3DA4CE"/>
    <path fill-rule="evenodd" clip-rule="evenodd" d="M93.4984 37.9704C94.3968 37.3511 95.2817 36.7415 96.8017 37.2239C98.0237 36.8776 98.8966 37.1373 100.904 38.4358C100.642 41.0328 95.4924 43.9761 92.2628 38.6955C92.713 38.5116 93.107 38.2402 93.4984 37.9704ZM94.5549 38.9407C94.8369 38.7637 95.6066 38.4436 96.6238 38.6946C96.6259 38.6952 96.6282 38.6953 96.6304 38.695C97.2341 38.6098 98.2271 38.5591 99.1244 39.024C99.1377 39.0307 99.1373 39.0496 99.1232 39.0548C98.1773 39.3976 96.0037 39.8396 94.5554 38.9692C94.5446 38.9628 94.5441 38.9474 94.5549 38.9407Z" fill="#C73752"/>
    <path d="M88.4221 0.173097C87.654 0.519366 87.2292 2.04872 87.1128 2.77012C93.3277 2.77012 99.1876 5.88653 101.341 7.44474C98.8093 3.20295 89.3823 -0.259738 88.4221 0.173097Z" fill="#191919"/>
    <path d="M85.3671 16.015C46.9606 -2.51039 61.1885 25.7105 85.7162 39.4747C85.2972 38.6436 83.0976 33.1842 82.0501 30.5583C80.1298 29.3463 79.5188 25.3642 79.5188 23.7195C79.5188 22.4036 80.4498 22.5941 80.9154 22.8538C82.2247 20.5165 83.534 19.3911 84.4942 18.612C85.2623 17.9887 85.8035 18.3523 85.9781 18.612C94.7155 23.2252 117.712 40.7876 129.602 49.8678L129.646 49.9012C130.947 50.8946 132.114 51.7858 133.113 52.5463C127.09 45.015 101.864 24.6717 85.3671 16.015Z" fill="#191919"/>
    <path d="M107.671 40.2052C107.914 39.9443 108.964 38.819 109.284 39.2149C109.633 39.6478 109.717 40.7586 109.633 41.5522C109.553 42.3048 108.92 43.7735 108.097 45.6834C105.324 52.121 100.39 63.5718 107.189 69.5134C105.385 70.6965 101.725 71.037 101.515 62.9343C101.33 55.7631 102.676 52.9317 104.252 49.6158C104.903 48.2484 105.592 46.7987 106.229 44.9284C106.636 43.9185 107.486 41.5695 107.625 40.2537C107.627 40.2525 107.628 40.251 107.63 40.2492C107.632 40.2468 107.635 40.2437 107.638 40.2402L107.649 40.2293L107.671 40.2052Z" fill="#191919"/>
    <path d="M79.6934 52.7194C84.4069 47.1791 93.6594 40.9462 98.2856 55.6627C92.0009 43.7164 88.5967 46.0537 79.6934 52.7194Z" fill="#191919"/>
    <path d="M20.6871 71.4179C15.799 70.5522 4.97538 75.7463 6.11013 81.5463C6.60475 83.0757 9.32229 85.788 16.2354 84.403C24.0189 82.8436 31.6605 73.3483 33.4204 71.1617C33.6144 70.9207 33.7369 70.7683 33.7802 70.7254C33.9003 70.6062 34.4373 69.9227 35.1834 68.9731C37.1474 66.4734 40.5607 62.1289 41.6361 61.3761C42.4217 60.8262 41.3742 63.4537 41.1996 63.8866C40.3849 65.9353 38.6159 70.6907 38.0573 73.3224C36.9226 75.9194 34.9149 80.0746 34.7404 80.4209C34.5658 80.7672 34.9149 82.4119 36.6607 81.4597C36.8526 81.1744 37.1235 80.7485 37.4644 80.2123C39.6068 76.8446 44.519 69.1225 50.0157 64.4925C52.4824 62.7544 51.5699 64.9898 50.4015 67.8522C49.9989 68.8387 49.5656 69.9 49.2301 70.8985C49.0415 71.4596 48.8275 72.0549 48.606 72.6712C47.2893 76.3344 45.7037 80.7459 47.5716 83.191C49.4047 84.4895 51.5868 83.3642 52.7216 81.8925C52.7797 81.3731 52.6343 80.594 51.5868 81.6328C50.2775 82.9313 47.8333 83.8853 48.5318 79.3821C49.0555 76.006 51.4995 69.1672 54.2927 63.3672C54.7583 62.5015 55.0085 61.0818 52.2851 62.3283C48.8809 63.8866 44.7285 67.9552 40.1522 73.3224C39.9195 73.5532 39.4431 73.5784 39.803 72.5433C39.8303 72.465 39.8591 72.3819 39.8896 72.294C40.8381 69.5636 43.3408 62.3583 44.7784 60.597C45.8383 59.2985 42.3344 58.606 39.8903 61.1164C35.0895 67.2627 25.2959 79.2089 18.5922 81.9791C12.4821 85.6149 2.88048 83.7104 9.86347 76.7851C10.9691 75.8039 13.8787 73.6513 16.6719 72.8895C17.7799 72.5874 18.7296 72.3724 19.4653 72.2058C21.0481 71.8474 21.6405 71.7134 20.6871 71.4179Z" fill="#191919"/>
    <path d="M57.9588 74.8807C58.2788 74.3036 58.5175 73.3224 56.9114 74.015C54.9038 74.8807 54.2928 79.0359 54.2055 79.9881C54.1182 80.9404 54.6419 82.4986 56.0385 82.2389C57.0229 82.0559 58.3542 80.4104 59.299 79.2429C59.6944 78.754 60.0223 78.3491 60.2283 78.1702C60.5727 77.8714 60.45 78.3937 60.2686 79.1659C60.0822 79.9597 59.8338 81.0174 59.9664 81.7195C60.2283 83.1045 61.5376 84.0568 63.6325 83.3642C64.2144 83.2777 65.9718 82.4639 68.346 79.9015C68.4333 79.8726 68.5381 80.092 68.6079 80.8538C68.6952 81.806 69.9172 82.7583 70.4409 82.9314C70.9646 83.1045 74.8926 83.6239 78.2095 79.4687C78.2676 79.4111 78.4015 79.3302 78.4714 79.4687C78.4827 79.4912 78.4911 79.565 78.5038 79.6766C78.589 80.4249 78.8685 82.8786 81.5264 83.1045C84.2451 83.3357 86.6872 81.0989 87.5611 80.2985C87.6693 80.1995 87.7535 80.1223 87.8111 80.0747C88.3348 79.6418 90.3424 77.5642 90.1679 77.0448C90.0223 76.6115 88.6609 78.107 88.062 78.7649C87.9433 78.8953 87.8544 78.9929 87.8111 79.0359C87.8052 79.0418 87.797 79.0501 87.7868 79.0603L87.7683 79.0792C87.2495 79.6091 83.202 83.7422 80.6535 80.8538C78.8205 78.7762 82.0501 73.3224 84.4069 73.3224C84.9306 73.2935 85.821 73.6341 85.1925 75.2269C84.9306 75.9195 85.4543 75.9195 85.6289 75.8329C85.8035 75.7463 87.0255 74.8807 87.2001 72.6299C87.3411 70.812 83.0103 72.1971 81.2646 74.1881C80.6172 75.0441 80.0509 75.8433 79.5319 76.5758C77.7416 79.1027 76.5133 80.8363 74.4561 81.3732C72.7977 82.0081 69.6379 82.3427 70.2663 78.603C71.0519 73.9284 74.0197 73.2359 74.5434 73.409C75.0671 73.5821 75.5909 73.8418 75.1544 75.6598C75.1544 76.0926 75.8527 75.6598 76.2892 75.1404C76.7256 74.6209 77.9476 72.803 76.2019 72.0239C74.4561 71.2448 70.9646 74.1881 70.2663 75.1404C69.4516 76.814 67.2355 80.1912 65.5528 81.3732C63.4579 82.8448 61.1885 83.1045 61.6249 80.4209C61.9159 79.1224 63.0444 76.1592 64.6799 73.8418C65.291 72.9762 64.2435 71.1583 63.1088 72.3702C61.974 74.592 59.1808 79.3302 57.0859 80.5075C54.4673 81.9792 56.7368 75.7463 57.9588 74.8807Z" fill="#191919"/>
    <path d="M84.756 21.6418C85.2798 23.0846 87.462 25.7451 92.0009 24.8448C90.6043 25.7682 86.9557 26.8878 83.534 23.9792C83.8832 23.9215 84.6164 23.7887 84.756 23.7195C84.8433 23.7195 84.9655 23.3039 84.756 21.6418Z" fill="#191919"/>
    <path d="M109.197 9.69547C112.775 7.61785 119.898 5.748 119.758 14.8895C119.496 15.1492 118.536 14.2835 118.274 12.8985C117.37 8.33473 111.98 9.52502 110.623 9.82461C110.538 9.84325 110.47 9.85845 110.419 9.8686C109.72 10.0071 109.313 9.81089 109.197 9.69547Z" fill="#191919"/>
    <path d="M121.591 13.0717C124.385 15.5821 124.996 23.8926 116.005 23.0269C123.21 21.0291 122.576 17.9398 121.854 14.4254L121.854 14.4249C121.763 13.9802 121.67 13.5286 121.591 13.0717Z" fill="#191919"/>
    <path d="M84.4069 8.13735C84.3488 7.38709 84.4767 5.90391 85.4543 5.97317C86.6764 6.05974 97.9364 7.44481 108.149 16.2747C108.964 15.0916 111.256 12.5869 113.91 12.0329C113.499 12.8826 112.59 13.8258 111.727 14.721C110.392 16.1055 109.168 17.3751 110.069 18.006C110.68 18.4678 112.025 19.6681 112.513 20.7762C112.217 20.6783 111.669 20.2787 110.919 19.732L110.918 19.7318C110.562 19.4726 110.161 19.1804 109.72 18.8717C108.236 17.8329 109.633 23.6329 115.219 26.1433C115.51 26.3454 115.607 26.8518 113.91 26.3165C111.99 25.7105 107.014 22.6806 107.8 17.7463C107.829 17.5155 107.748 17.0191 107.189 16.8806C107.076 16.8526 106.757 16.632 106.245 16.2773C103.592 14.4403 95.7473 9.00806 84.4069 8.13735Z" fill="#191919"/>
    <path d="M119.147 25.6239C124.297 25.9702 134.161 24.0657 135.383 15.6687C132.328 21.9015 125.956 24.3254 119.147 25.6239Z" fill="#191919"/>
    <path d="M118.559 28.495C120.866 29.9432 125.636 32.9372 134.51 32.8955C134.946 33.2418 132.956 34.4191 127.789 33.5881C122.621 32.757 119.467 29.8368 118.536 28.4806L118.559 28.495Z" fill="#191919"/>
    <path d="M89.295 42.6776C92.35 45.794 97.2207 49.5337 102.737 44.0627C100.904 47.9582 94.0958 49.6896 89.295 42.6776Z" fill="#191919"/>
    <path fill-rule="evenodd" clip-rule="evenodd" d="M180.336 72.5705C181.383 74.3018 179.667 77.1585 178.677 78.3705C178.328 79.063 178.852 79.4093 179.288 79.063C179.554 78.8521 179.95 78.2882 180.276 77.8208V77.8204C180.488 77.5204 180.669 77.26 180.772 77.1585C181.008 76.9239 181.032 76.9719 181.099 77.1107V77.1116V77.113C181.106 77.1274 181.113 77.1426 181.121 77.1585C181.209 77.3317 181.296 78.6302 180.947 79.5824C180.646 80.1127 179.449 81.7475 178.052 83.6554C175.802 86.7299 173.032 90.5136 172.654 91.5287C172.647 91.5465 172.635 91.5758 172.618 91.6154C172.238 92.528 169.584 98.898 173.265 97.1555C177.106 95.3376 181.034 86.1615 181.209 85.6421C181.245 85.5344 181.27 85.4157 181.294 85.2952C181.392 84.8332 181.495 84.3436 182.256 84.3436C188.022 86.2766 193.109 80.49 194.07 79.3972V79.3966C194.141 79.3154 194.19 79.26 194.214 79.2361C194.564 78.8899 195.436 77.2451 194.389 77.5048C190.112 82.6988 187.93 83.3048 187.231 83.4779C186.533 83.6511 185.66 83.6511 186.184 83.3048C190.897 79.669 191.945 73.1764 191.421 71.8779C190.897 70.5794 189.85 70.666 188.715 71.0988C187.261 71.4448 185.498 74.1337 184.379 75.8396C183.818 76.6947 183.42 77.3028 183.303 77.2451C183.084 77.136 183.106 76.204 183.131 75.1613V75.1609C183.146 74.547 183.162 73.8948 183.129 73.3496C183.042 71.8779 179.55 71.272 180.336 72.5705ZM188.715 72.3702C185.782 73.2012 183.478 78.9493 182.692 81.7194C182.692 82.3254 183.303 83.0179 184.264 83.3642C186.795 82.5851 189.064 76.7851 189.152 76.2657C189.157 76.2305 189.166 76.1821 189.178 76.1225C189.325 75.3039 189.855 72.3702 188.715 72.3702ZM173.265 95.4836C172.637 93.3367 177.717 85.9323 180.336 82.4985C180.323 82.5105 180.329 82.5724 180.337 82.6841C180.39 83.3773 180.587 85.9887 177.804 90.4627C174.575 95.6567 173.527 95.8299 173.265 95.4836Z" fill="#191919"/>
    <path d="M123.075 72.63C122.517 72.907 121.329 73.1494 120.806 73.236C118.885 73.6986 108.411 73.4955 111.815 67.7821C114.538 63.2113 122.086 60.1642 125.519 59.2119C143.413 54.0179 139.311 65.791 137.739 69.6866C136.996 71.5291 136.867 71.9086 137.041 71.9373C140.009 68.1284 145.944 61.5493 148.65 63.1075C151.881 64.968 148.825 73.9284 148.476 74.4478C148.127 74.9672 147.778 76.0925 147.865 76.1791C147.952 76.2657 148.127 76.1791 148.389 75.9194L155.11 69.2537C157.408 67.0896 162.232 63.2287 163.14 65.0985C164.195 67.2719 162.533 70.942 162.085 71.9335L162.084 71.9345C162.05 72.009 162.024 72.0682 162.005 72.1104C161.979 72.1717 161.925 72.2893 161.848 72.4559C161.168 73.9375 158.714 79.2824 158.165 83.0179C157.676 86.3421 159.881 85.6149 161.045 84.8358C161.424 84.5474 162.232 84.0567 162.442 84.403C162.651 84.7493 162.413 85.0668 162.267 85.1821C160.26 86.7403 158.776 86.4806 157.379 86.0478C155.983 85.6149 156.594 81.8925 157.117 79.3821C157.536 77.3737 160.027 71.7931 161.22 69.2537C161.569 68.5035 162.162 66.8645 161.744 66.3104C161.325 65.7564 159.707 66.7722 158.95 67.3493C154.499 70.7254 148.233 78.1702 144.81 83.4507C144.024 84.6627 143.5 84.8358 142.715 84.4896C142.086 84.2125 142.337 83.22 142.54 82.7584C144.111 79.9882 146.381 75.3134 147.778 70.2925C149.328 64.719 148.214 64.031 147.254 64.3194C143.151 65.0119 134.597 76.5254 130.844 83.191C130.418 83.947 129.709 85.009 128.836 84.5761C128.138 84.2299 128.545 83.22 128.836 82.7584C130.756 80.1614 132.764 77.1313 135.732 69.3405C139.105 60.4848 135.121 58.7793 132.502 58.9524C123.903 59.1103 116.538 65.1749 114.848 66.5672L114.847 66.5676C114.685 66.7014 114.575 66.7919 114.521 66.83C113.91 67.2629 111.902 68.9942 113.037 70.9853C114.172 72.9763 119.846 72.2838 121.679 71.8509C123.145 71.5047 123.57 71.6489 123.599 71.7644C123.657 71.9375 123.634 72.353 123.075 72.63Z" fill="#191919"/>
    <path fill-rule="evenodd" clip-rule="evenodd" d="M168.639 74.2153C167.437 73.7681 166.235 76.1428 165.868 76.8682L165.868 76.8687C165.808 76.9858 165.771 77.0599 165.759 77.072C165.734 77.2037 165.702 77.3592 165.666 77.5329C165.326 79.1816 164.649 82.4637 166.544 82.6988C168.507 82.9421 170.93 79.0059 171.586 77.9389C171.607 77.9051 171.626 77.8743 171.643 77.8464C171.663 77.8151 171.68 77.7875 171.694 77.7645C171.82 77.5652 171.996 77.1509 172.181 76.7157V76.7153C172.64 75.6376 173.153 74.43 173.091 76.0332C173.039 77.372 172.678 78.9562 172.394 80.2021L172.394 80.2024C172.201 81.0506 172.043 81.7421 172.043 82.0929C172.043 82.7854 171.52 83.1317 171.258 83.2182C158.968 86.6117 154.557 92.0192 153.888 94.2988C153.451 94.6451 152.055 103.648 160.958 101.484C169.163 99.4894 173.091 86.5078 173.44 84.9496C173.768 83.4849 175.022 83.9323 175.388 84.0631C175.413 84.0716 175.432 84.0787 175.448 84.0839C175.53 84.1111 175.631 84.1989 175.734 84.2898C175.959 84.4868 176.202 84.6991 176.32 84.3436C176.582 83.478 175.797 83.3048 175.273 83.2182C175.123 83.1933 174.973 83.1969 174.828 83.2006C174.47 83.2094 174.15 83.2172 173.964 82.7854C173.85 82.5217 174.248 80.5201 174.692 78.2934V78.2931C175.268 75.403 175.917 72.1335 175.622 71.7914C175.203 71.3066 174.517 71.4739 174.226 71.6182C174.132 71.6182 173.559 72.6427 172.819 73.9668L172.819 73.9673C172.182 75.1076 171.421 76.47 170.734 77.5914C169.275 79.9742 168.377 81.0541 167.504 81.0541C166.632 81.0541 166.719 79.1496 167.33 77.9377C167.441 77.7179 167.577 77.464 167.723 77.194C168.378 75.975 169.211 74.4279 168.639 74.2153ZM155.633 99.2926C152.404 91.2418 164.769 85.9901 171.607 84.1433C171.607 86.9135 169.599 95.172 164.711 98.4269C159.823 101.682 156.623 100.36 155.633 99.2926Z" fill="#191919"/>
    <path d="M16.41 107.087V106.422H20.1389V107.087H18.6306V112.24H17.9184V107.087H16.41Z" fill="black"/>
    <path d="M27.7235 106.422L24.9666 112.24H24.1706L24.9247 110.519L22.9891 106.422H23.8689L25.5951 110.328L25.151 110.295L26.9275 106.422H27.7235Z" fill="black"/>
    <path d="M30.9113 106.422H31.6235V112.24H30.9113V106.422ZM31.3051 107.087V106.422H32.5034C32.8833 106.422 33.2212 106.494 33.5173 106.638C33.819 106.777 34.0564 106.976 34.2296 107.237C34.4083 107.497 34.4977 107.807 34.4977 108.167C34.4977 108.522 34.4083 108.832 34.2296 109.098C34.0564 109.359 33.819 109.561 33.5173 109.705C33.2212 109.843 32.8833 109.913 32.5034 109.913H31.3051V109.248H32.5034C32.8833 109.248 33.1905 109.156 33.4251 108.974C33.6653 108.791 33.7855 108.522 33.7855 108.167C33.7855 107.807 33.6653 107.539 33.4251 107.361C33.1905 107.178 32.8833 107.087 32.5034 107.087H31.3051Z" fill="black"/>
    <path d="M43.1275 107.212L38.0159 112.53L38.0578 111.45L43.1694 106.131L43.1275 107.212ZM38.7282 106.422V111.616L38.0159 112.53V106.422H38.7282ZM43.1694 106.131V112.24H42.4571V107.046L43.1694 106.131Z" fill="black"/>
    <path d="M47.4463 109.331C47.4463 109.78 47.5468 110.176 47.7479 110.519C47.9546 110.863 48.2228 111.131 48.5524 111.325C48.882 111.519 49.2395 111.616 49.625 111.616C49.9043 111.616 50.1585 111.58 50.3875 111.508C50.6221 111.436 50.8344 111.336 51.0244 111.209C51.2143 111.076 51.3763 110.924 51.5104 110.752V111.683C51.2646 111.899 50.9964 112.059 50.7059 112.165C50.4154 112.27 50.0551 112.323 49.625 112.323C49.2172 112.323 48.8345 112.251 48.477 112.107C48.125 111.957 47.815 111.749 47.5468 111.483C47.2787 111.212 47.0692 110.893 46.9184 110.528C46.7675 110.162 46.6921 109.763 46.6921 109.331C46.6921 108.899 46.7675 108.5 46.9184 108.134C47.0692 107.769 47.2787 107.453 47.5468 107.187C47.815 106.915 48.125 106.708 48.477 106.563C48.8345 106.414 49.2172 106.339 49.625 106.339C50.0551 106.339 50.4154 106.392 50.7059 106.497C50.9964 106.602 51.2646 106.763 51.5104 106.979V107.91C51.3763 107.738 51.2143 107.588 51.0244 107.461C50.8344 107.328 50.6221 107.226 50.3875 107.154C50.1585 107.082 49.9043 107.046 49.625 107.046C49.2395 107.046 48.882 107.142 48.5524 107.336C48.2228 107.53 47.9546 107.799 47.7479 108.142C47.5468 108.48 47.4463 108.877 47.4463 109.331Z" fill="black"/>
    <path d="M54.4373 107.087V106.422H58.1662V107.087H56.6579V112.24H55.9456V107.087H54.4373Z" fill="black"/>
    <path d="M66.5446 107.212L61.433 112.53L61.4749 111.45L66.5865 106.131L66.5446 107.212ZM62.1453 106.422V111.616L61.433 112.53V106.422H62.1453ZM66.5865 106.131V112.24H65.8742V107.046L66.5865 106.131Z" fill="black"/>
    <path d="M72.2039 109.913V109.289H74.0223V109.913H72.2039ZM73.5447 106.422H74.2569V112.24H73.5447V106.422ZM71.1146 106.422V107.935C71.1146 108.184 71.1537 108.411 71.2319 108.616C71.3157 108.821 71.4386 108.985 71.6006 109.107C71.7626 109.228 71.9637 109.289 72.2039 109.289V109.913C71.8185 109.913 71.4945 109.827 71.2319 109.655C70.9694 109.478 70.771 109.239 70.637 108.94C70.5085 108.641 70.4442 108.306 70.4442 107.935V106.422H71.1146Z" fill="black"/>
    <path d="M78.5075 112.24V111.575H81.4655V112.24H78.5075ZM78.5075 107.087V106.422H81.4655V107.087H78.5075ZM78.5075 109.414V108.749H81.2979V109.414H78.5075ZM78.1136 106.422H78.8259V112.24H78.1136V106.422Z" fill="black"/>
    <path d="M85.6535 109.331C85.6535 109.78 85.7541 110.176 85.9552 110.519C86.1619 110.863 86.43 111.131 86.7596 111.325C87.0892 111.519 87.4468 111.616 87.8322 111.616C88.1115 111.616 88.3657 111.58 88.5948 111.508C88.8294 111.436 89.0417 111.336 89.2316 111.209C89.4216 111.076 89.5836 110.924 89.7176 110.752V111.683C89.4718 111.899 89.2037 112.059 88.9132 112.165C88.6227 112.27 88.2624 112.323 87.8322 112.323C87.4244 112.323 87.0418 112.251 86.6842 112.107C86.3323 111.957 86.0222 111.749 85.7541 111.483C85.4859 111.212 85.2765 110.893 85.1256 110.528C84.9748 110.162 84.8994 109.763 84.8994 109.331C84.8994 108.899 84.9748 108.5 85.1256 108.134C85.2765 107.769 85.4859 107.453 85.7541 107.187C86.0222 106.915 86.3323 106.708 86.6842 106.563C87.0418 106.414 87.4244 106.339 87.8322 106.339C88.2624 106.339 88.6227 106.392 88.9132 106.497C89.2037 106.602 89.4718 106.763 89.7176 106.979V107.91C89.5836 107.738 89.4216 107.588 89.2316 107.461C89.0417 107.328 88.8294 107.226 88.5948 107.154C88.3657 107.082 88.1115 107.046 87.8322 107.046C87.4468 107.046 87.0892 107.142 86.7596 107.336C86.43 107.53 86.1619 107.799 85.9552 108.142C85.7541 108.48 85.6535 108.877 85.6535 109.331Z" fill="black"/>
    <path d="M93.4849 106.422H94.1972V112.24H93.4849V106.422ZM96.5016 106.422H97.3815L94.8424 109.148L97.5072 112.24H96.6273L93.9793 109.165L96.5016 106.422Z" fill="black"/>
    <path d="M100.739 109.331C100.739 109.769 100.834 110.159 101.023 110.503C101.219 110.846 101.484 111.118 101.819 111.317C102.155 111.517 102.535 111.616 102.959 111.616C103.389 111.616 103.769 111.517 104.099 111.317C104.434 111.118 104.696 110.846 104.886 110.503C105.082 110.159 105.18 109.769 105.18 109.331C105.18 108.893 105.082 108.503 104.886 108.159C104.696 107.816 104.434 107.544 104.099 107.345C103.769 107.145 103.389 107.046 102.959 107.046C102.535 107.046 102.155 107.145 101.819 107.345C101.484 107.544 101.219 107.816 101.023 108.159C100.834 108.503 100.739 108.893 100.739 109.331ZM99.9844 109.331C99.9844 108.904 100.057 108.511 100.202 108.151C100.353 107.785 100.563 107.469 100.831 107.203C101.099 106.932 101.414 106.721 101.778 106.572C102.141 106.417 102.535 106.339 102.959 106.339C103.389 106.339 103.783 106.417 104.141 106.572C104.504 106.721 104.819 106.932 105.088 107.203C105.356 107.469 105.562 107.785 105.708 108.151C105.858 108.511 105.934 108.904 105.934 109.331C105.934 109.752 105.858 110.145 105.708 110.511C105.562 110.877 105.356 111.195 105.088 111.467C104.819 111.733 104.504 111.943 104.141 112.098C103.783 112.248 103.389 112.323 102.959 112.323C102.535 112.323 102.141 112.248 101.778 112.098C101.414 111.943 101.099 111.733 100.831 111.467C100.563 111.195 100.353 110.877 100.202 110.511C100.057 110.145 99.9844 109.752 99.9844 109.331Z" fill="black"/>
    <path d="M109.847 112.24V111.575H112.805V112.24H109.847ZM109.847 107.087V106.422H112.805V107.087H109.847ZM109.847 109.414V108.749H112.638V109.414H109.847ZM109.453 106.422H110.166V112.24H109.453V106.422Z" fill="black"/>
    <path d="M122.162 110.494L122.414 109.829H125.011L125.263 110.494H122.162ZM123.696 107.735L122.707 110.046L122.64 110.195L121.768 112.24H120.972L123.696 106.131L126.419 112.24H125.623L124.768 110.245L124.701 110.079L123.696 107.735Z" fill="black"/>
    <path d="M129.646 106.422H132.537V107.087H130.359V112.24H129.646V106.422Z" fill="black"/>
    <path d="M136.196 112.24V111.575H139.154V112.24H136.196ZM136.196 107.087V106.422H139.154V107.087H136.196ZM136.196 109.414V108.749H138.986V109.414H136.196ZM135.802 106.422H136.514V112.24H135.802V106.422Z" fill="black"/>
    <path d="M143.317 109.414V108.749H147.339V109.414H143.317ZM146.861 106.422H147.573V112.24H146.861V106.422ZM142.923 106.422H143.635V112.24H142.923V106.422Z" fill="black"/>
    <path d="M151.846 109.331C151.846 109.78 151.946 110.176 152.147 110.519C152.354 110.863 152.622 111.131 152.952 111.325C153.282 111.519 153.639 111.616 154.025 111.616C154.304 111.616 154.558 111.58 154.787 111.508C155.022 111.436 155.234 111.336 155.424 111.209C155.614 111.076 155.776 110.924 155.91 110.752V111.683C155.664 111.899 155.396 112.059 155.105 112.165C154.815 112.27 154.455 112.323 154.025 112.323C153.617 112.323 153.234 112.251 152.877 112.107C152.525 111.957 152.215 111.749 151.946 111.483C151.678 111.212 151.469 110.893 151.318 110.528C151.167 110.162 151.092 109.763 151.092 109.331C151.092 108.899 151.167 108.5 151.318 108.134C151.469 107.769 151.678 107.453 151.946 107.187C152.215 106.915 152.525 106.708 152.877 106.563C153.234 106.414 153.617 106.339 154.025 106.339C154.455 106.339 154.815 106.392 155.105 106.497C155.396 106.602 155.664 106.763 155.91 106.979V107.91C155.776 107.738 155.614 107.588 155.424 107.461C155.234 107.328 155.022 107.226 154.787 107.154C154.558 107.082 154.304 107.046 154.025 107.046C153.639 107.046 153.282 107.142 152.952 107.336C152.622 107.53 152.354 107.799 152.147 108.142C151.946 108.48 151.846 108.877 151.846 109.331Z" fill="black"/>
    <path d="M158.837 107.087V106.422H162.566V107.087H161.057V112.24H160.345V107.087H158.837Z" fill="black"/>
    <path d="M166.394 109.165V108.774H167.341C167.536 108.774 167.712 108.741 167.869 108.674C168.025 108.608 168.148 108.511 168.238 108.384C168.327 108.256 168.372 108.101 168.372 107.918C168.372 107.641 168.274 107.428 168.078 107.278C167.883 107.123 167.637 107.046 167.341 107.046H166.545V111.616H167.425C167.676 111.616 167.897 111.572 168.087 111.483C168.282 111.395 168.433 111.267 168.539 111.101C168.651 110.935 168.707 110.733 168.707 110.494C168.707 110.317 168.676 110.159 168.615 110.021C168.553 109.882 168.464 109.766 168.346 109.672C168.235 109.577 168.101 109.508 167.944 109.464C167.788 109.414 167.615 109.389 167.425 109.389H166.394V108.998H167.425C167.71 108.998 167.972 109.029 168.212 109.09C168.453 109.151 168.662 109.245 168.841 109.372C169.025 109.494 169.168 109.652 169.268 109.846C169.369 110.04 169.419 110.27 169.419 110.536C169.419 110.918 169.33 111.237 169.151 111.492C168.978 111.741 168.74 111.929 168.439 112.057C168.143 112.179 167.805 112.24 167.425 112.24H165.833V106.422H167.341C167.693 106.422 167.997 106.475 168.254 106.58C168.517 106.685 168.721 106.846 168.866 107.062C169.011 107.273 169.084 107.544 169.084 107.877C169.084 108.148 169.011 108.381 168.866 108.575C168.721 108.769 168.517 108.915 168.254 109.015C167.997 109.115 167.693 109.165 167.341 109.165H166.394Z" fill="black"/>
    <path d="M173.438 109.331C173.438 109.769 173.533 110.159 173.723 110.503C173.918 110.846 174.184 111.118 174.519 111.317C174.854 111.517 175.235 111.616 175.659 111.616C176.088 111.616 176.469 111.517 176.799 111.317C177.134 111.118 177.396 110.846 177.586 110.503C177.782 110.159 177.879 109.769 177.879 109.331C177.879 108.893 177.782 108.503 177.586 108.159C177.396 107.816 177.134 107.544 176.799 107.345C176.469 107.145 176.088 107.046 175.659 107.046C175.235 107.046 174.854 107.145 174.519 107.345C174.184 107.544 173.918 107.816 173.723 108.159C173.533 108.503 173.438 108.893 173.438 109.331ZM172.684 109.331C172.684 108.904 172.756 108.511 172.902 108.151C173.052 107.785 173.262 107.469 173.53 107.203C173.798 106.932 174.114 106.721 174.477 106.572C174.84 106.417 175.235 106.339 175.659 106.339C176.088 106.339 176.483 106.417 176.841 106.572C177.204 106.721 177.518 106.932 177.787 107.203C178.056 107.469 178.262 107.785 178.407 108.151C178.559 108.511 178.634 108.904 178.634 109.331C178.634 109.752 178.559 110.145 178.407 110.511C178.262 110.877 178.056 111.195 177.787 111.467C177.518 111.733 177.204 111.943 176.841 112.098C176.483 112.248 176.088 112.323 175.659 112.323C175.235 112.323 174.84 112.248 174.477 112.098C174.114 111.943 173.798 111.733 173.53 111.467C173.262 111.195 173.052 110.877 172.902 110.511C172.756 110.145 172.684 109.752 172.684 109.331Z" fill="black"/>
</svg>
