<svg width="24" height="24" viewBox="0 0 24 24" fill="none" xmlns="http://www.w3.org/2000/svg">
<path fill-rule="evenodd" clip-rule="evenodd" d="M16.8015 4.67702C17.1825 4.28856 17.6389 3.98212 18.1427 3.77654C18.6465 3.57095 19.187 3.47055 19.731 3.48152C19.894 3.48422 20.0497 3.5502 20.165 3.66551C20.2803 3.78083 20.3463 3.93646 20.349 4.09952C20.3599 4.64352 20.2595 5.18403 20.054 5.68781C19.8484 6.19159 19.5419 6.64801 19.1535 7.02902C17.406 8.73377 14.4277 11.5845 12.0585 13.5765C10.7424 14.6838 9.41961 15.783 8.09022 16.8743C7.86349 17.0601 7.6962 17.3084 7.60902 17.5883C7.52185 17.8682 7.51862 18.1675 7.59972 18.4493L8.14722 20.3475L8.03922 20.4555L5.70672 18.123L3.37497 15.792L3.48297 15.6848L5.38047 16.2315C5.66224 16.3129 5.96168 16.3098 6.24174 16.2228C6.5218 16.1357 6.77021 15.9685 6.95622 15.7418C8.04719 14.4121 9.14621 13.0891 10.2532 11.7728C12.246 9.40427 15.0967 6.42527 16.8007 4.67777L16.8015 4.67702ZM19.7437 2.73152C19.0974 2.71873 18.4552 2.83829 17.8567 3.08283C17.2583 3.32737 16.7162 3.69174 16.2637 4.15352C15.4363 5.0019 14.6158 5.85692 13.8022 6.71852L5.82972 3.30152C5.50933 3.16356 5.14923 3.149 4.81874 3.26063C4.48825 3.37226 4.21074 3.6022 4.03961 3.90618C3.86849 4.21015 3.81586 4.56668 3.89185 4.90714C3.96784 5.24759 4.16708 5.54791 4.45122 5.75027L10.6417 10.1715C10.3057 10.554 9.98322 10.9283 9.67947 11.289C8.41722 12.789 7.27722 14.1675 6.37647 15.2648C6.28354 15.3781 6.15942 15.4618 6.01946 15.5054C5.8795 15.549 5.72984 15.5506 5.58897 15.51L3.69072 14.9633C3.56191 14.9262 3.42551 14.9243 3.29572 14.9578C3.16593 14.9913 3.04748 15.059 2.95272 15.1538L2.84472 15.261C2.77499 15.3307 2.71967 15.4134 2.68193 15.5044C2.64418 15.5955 2.62476 15.6931 2.62476 15.7916C2.62476 15.8902 2.64418 15.9878 2.68193 16.0788C2.71967 16.1699 2.77499 16.2526 2.84472 16.3223L5.17722 18.654L7.50897 20.9858C7.64962 21.1264 7.84035 21.2054 8.03922 21.2054C8.23809 21.2054 8.42883 21.1264 8.56947 20.9858L8.67672 20.8778C8.77153 20.783 8.83921 20.6646 8.87271 20.5348C8.90621 20.405 8.90432 20.2686 8.86722 20.1398L8.32047 18.2423C8.27976 18.1013 8.28129 17.9515 8.32489 17.8114C8.36848 17.6713 8.45221 17.547 8.56572 17.454C9.66297 16.5533 11.0407 15.414 12.5415 14.151C12.9 13.8495 13.272 13.5285 13.6507 13.1963L18.0345 19.3335C18.2368 19.6177 18.5371 19.8169 18.8776 19.8929C19.2181 19.9689 19.5746 19.9162 19.8786 19.7451C20.1825 19.574 20.4125 19.2965 20.5241 18.966C20.6357 18.6355 20.6212 18.2754 20.4832 17.955L17.0932 10.0463C18.0757 9.11927 18.9757 8.24927 19.677 7.56602C20.1387 7.11366 20.503 6.57166 20.7475 5.97334C20.992 5.37502 21.1117 4.73301 21.099 4.08677C21.093 3.7292 20.9483 3.38795 20.6954 3.13508C20.4425 2.8822 20.1013 2.7375 19.7437 2.73152ZM16.512 10.593C15.762 11.2943 14.9805 12.0128 14.2155 12.696L18.645 18.897C18.74 19.0302 18.8808 19.1235 19.0405 19.1591C19.2001 19.1947 19.3673 19.17 19.5098 19.0898C19.6524 19.0096 19.7602 18.8795 19.8127 18.7246C19.8651 18.5697 19.8585 18.4008 19.794 18.2505L16.512 10.593ZM11.142 9.60752C11.8376 8.83021 12.5422 8.06091 13.2555 7.29977L5.53422 3.99077C5.38371 3.92539 5.2143 3.91815 5.05876 3.97045C4.90321 4.02276 4.7726 4.13088 4.69217 4.27392C4.61174 4.41696 4.58721 4.58474 4.62333 4.74482C4.65946 4.90489 4.75366 5.04588 4.88772 5.14052L11.142 9.60752Z" fill="#3CA3CE"/>
</svg>
