<svg width="20" height="20" viewBox="0 0 20 20" fill="none" xmlns="http://www.w3.org/2000/svg">
<path d="M18.899 14.9342C18.8759 14.884 18.8545 14.842 18.8346 14.8086C18.5047 14.2063 17.875 13.4666 16.9453 12.59L16.9253 12.57L16.9155 12.5597L16.9056 12.5501H16.8958C16.4737 12.1417 16.2066 11.8673 16.0947 11.7265C15.8903 11.4592 15.844 11.1881 15.9562 10.9138C16.0357 10.7064 16.3323 10.268 16.8467 9.59852C17.117 9.2441 17.3312 8.9598 17.4896 8.74504C18.6305 7.2059 19.1248 6.22244 18.9733 5.79379L18.9138 5.69345C18.8742 5.63302 18.7718 5.57786 18.607 5.52769C18.4423 5.47752 18.2312 5.4696 17.9742 5.50275L15.1253 5.52329C15.0594 5.51654 14.9935 5.5183 14.9273 5.52798C14.8614 5.53825 14.8186 5.54822 14.7986 5.5582C14.7787 5.56847 14.7625 5.57668 14.7492 5.58314L14.7096 5.61336C14.6766 5.63331 14.6405 5.66852 14.6009 5.71898C14.5613 5.76915 14.528 5.82753 14.502 5.89472C14.1921 6.70449 13.8394 7.45733 13.4436 8.15356C13.1996 8.56841 12.9752 8.92841 12.7711 9.23266C12.5667 9.53749 12.3953 9.76164 12.2568 9.90511C12.1183 10.0489 11.9928 10.1648 11.8809 10.2513C11.7688 10.3387 11.6829 10.3751 11.6239 10.3619C11.5644 10.3487 11.5083 10.3352 11.4557 10.3214C11.3634 10.2613 11.2888 10.1794 11.233 10.0756C11.177 9.97201 11.1391 9.84145 11.1191 9.68419C11.0995 9.52693 11.0876 9.39138 11.0847 9.27755C11.0813 9.16371 11.083 9.00322 11.0896 8.79579C11.0963 8.58837 11.0995 8.44812 11.0995 8.37419C11.0995 8.12011 11.1044 7.84403 11.1145 7.54594C11.1243 7.24815 11.1327 7.01226 11.1391 6.83827C11.1457 6.66459 11.1489 6.48033 11.1489 6.28611C11.1489 6.09247 11.1373 5.9399 11.1142 5.8293C11.0911 5.71898 11.0564 5.61218 11.0104 5.50803C10.9642 5.40446 10.8965 5.32407 10.8075 5.26745C10.7184 5.21053 10.608 5.16535 10.4762 5.1319C10.1263 5.05151 9.68139 5.00838 9.14076 5.00134C7.91407 4.98843 7.12596 5.06882 6.77642 5.24251C6.63794 5.31644 6.51247 5.41649 6.40058 5.54382C6.28176 5.69111 6.26528 5.77179 6.35114 5.78441C6.74693 5.84485 7.02708 5.9889 7.19187 6.21628L7.25143 6.33657C7.2974 6.424 7.34366 6.57774 7.38991 6.79837C7.43617 7.0193 7.46566 7.2634 7.47896 7.53127C7.51192 8.01977 7.51192 8.43785 7.47896 8.78611C7.446 9.13437 7.41478 9.40517 7.385 9.59881C7.35522 9.79304 7.3107 9.95 7.25143 10.0706C7.19187 10.1915 7.15255 10.2651 7.13261 10.2918C7.11266 10.3185 7.09647 10.3352 7.08317 10.342C6.9973 10.3751 6.90855 10.3921 6.81603 10.3921C6.72352 10.3921 6.61163 10.3452 6.47951 10.2513C6.34768 10.158 6.21064 10.0289 6.06897 9.86492C5.92702 9.70121 5.76743 9.47177 5.58905 9.17721C5.41096 8.88293 5.22622 8.53497 5.03512 8.13331L4.87698 7.84197C4.7781 7.65479 4.6428 7.38193 4.47136 7.02399C4.29992 6.66605 4.14813 6.31985 4.0163 5.98479C3.96339 5.84455 3.88447 5.73746 3.77894 5.66353L3.7295 5.63331C3.69655 5.60661 3.64364 5.57815 3.57107 5.54822C3.49822 5.51801 3.42276 5.49629 3.34354 5.4828L0.633149 5.50275C0.356182 5.50275 0.168261 5.56671 0.0693861 5.69375L0.0297782 5.75389C0.0098297 5.78763 0 5.84132 0 5.91467C0 5.98861 0.0199485 6.07868 0.0595564 6.18547C0.455347 7.12932 0.885541 8.03943 1.35043 8.91579C1.8156 9.79274 2.2192 10.4989 2.56237 11.0341C2.90526 11.5698 3.25479 12.0748 3.61097 12.5501C3.96715 13.0254 4.20278 13.3296 4.31813 13.4634C4.43348 13.5975 4.52398 13.6978 4.59018 13.7647L4.83737 14.0059C4.99551 14.1664 5.22825 14.3588 5.5347 14.583C5.84145 14.8074 6.18086 15.0281 6.55352 15.2452C6.92589 15.4629 7.35985 15.6398 7.85422 15.7774C8.34889 15.9147 8.83025 15.9698 9.29832 15.9429H10.436C10.667 15.9229 10.8416 15.8496 10.9601 15.7219L10.9997 15.6718C11.026 15.6319 11.0509 15.5697 11.074 15.4863C11.0969 15.4027 11.1087 15.3106 11.1087 15.2102C11.1018 14.9224 11.1235 14.6628 11.1729 14.4322C11.2223 14.2013 11.2784 14.0273 11.3412 13.9099C11.4039 13.7932 11.4744 13.6943 11.5539 13.6139C11.6332 13.5335 11.689 13.4854 11.7222 13.4684C11.7552 13.4519 11.7818 13.4402 11.8014 13.4332C11.9596 13.3798 12.1458 13.4317 12.3603 13.5887C12.5745 13.7462 12.7757 13.9399 12.9636 14.1711C13.1516 14.402 13.3774 14.661 13.6413 14.9491C13.905 15.2369 14.1357 15.4508 14.3337 15.5914L14.5318 15.7122C14.6636 15.7923 14.835 15.866 15.0461 15.9332C15.2571 15.9998 15.4419 16.0168 15.6 15.9833L18.1323 15.9429C18.383 15.9429 18.5776 15.9012 18.716 15.8173C18.8545 15.7343 18.9369 15.6415 18.9632 15.5412C18.9895 15.4409 18.9913 15.3276 18.9681 15.2C18.945 15.0729 18.9219 14.9843 18.899 14.9342Z" fill="#C73752"/>
</svg>
