<svg width="20" height="20" viewBox="0 0 20 20" fill="none" xmlns="http://www.w3.org/2000/svg">
<path d="M9.30708 3.72109C9.89299 3.20137 10.7224 3.02472 11.5085 3.00426C12.3382 2.99744 13.1678 3.00085 13.9973 3.00085C14.0009 3.81953 14.0009 4.6348 13.9973 5.45348C13.4625 5.45348 12.9238 5.45348 12.3891 5.45348C12.0506 5.43302 11.7014 5.67424 11.6395 5.99024C11.6322 6.53724 11.6359 7.08402 11.6359 7.63101C12.4217 7.63442 13.2078 7.63101 13.9936 7.63442C13.9354 8.42582 13.83 9.21403 13.7062 9.99542C13.0112 10.0022 12.3162 9.99542 11.6212 9.99883C11.6139 12.3326 11.6249 14.6629 11.6176 16.9968C10.5841 17.0002 9.5545 16.9934 8.52101 17.0002C8.50275 14.6665 8.52101 12.3328 8.51006 9.99883C8.00792 9.99542 7.50214 10.0022 7 9.99542C7.00365 9.21062 7 8.42604 7 7.64465C7.50214 7.63783 8.00792 7.64465 8.51006 7.64124C8.52467 6.88031 8.49545 6.11597 8.52467 5.35503C8.57944 4.7471 8.82321 4.13895 9.30708 3.72109Z" fill="#C73752"/>
</svg>
