<svg width="32" height="32" viewBox="0 0 32 32" fill="none" xmlns="http://www.w3.org/2000/svg">
<path d="M11.1831 6.77221C10.9678 6.4156 10.7417 6.08264 10.5171 5.77947C12.0564 4.6602 13.9511 4 16 4C17.76 4 19.4063 4.48715 20.8112 5.33396C20.791 5.45279 20.7623 5.58739 20.7226 5.73723C20.5818 6.26937 20.3602 6.77727 20.1718 7.07373C20.1068 7.17596 19.8398 7.43707 19.3552 7.79805C19.1392 7.95899 18.8994 8.10677 18.6138 8.27748L18.5147 8.33657C18.2647 8.48555 17.9786 8.65599 17.7028 8.84497C17.0522 9.29076 16.3746 9.89331 15.9188 10.8677C15.5892 11.5724 15.6119 12.2587 15.7576 12.8091C15.8052 12.9888 15.8314 13.1697 15.8318 13.3287C15.8319 13.3781 15.8126 13.4571 15.7022 13.5492C15.5835 13.6484 15.4163 13.7083 15.266 13.7067C13.83 13.6904 12.6973 12.501 12.533 10.6036C12.408 9.1616 11.8188 7.82509 11.1831 6.77221Z" fill="#C73752"/>
<path d="M22.202 19.3452C22.5547 19.3416 22.8855 19.3184 23.1956 19.2776C22.0255 20.6927 20.4459 21.7567 18.6386 22.2884C18.5766 21.7799 18.6172 21.1688 18.917 20.6041C19.1728 20.1219 19.8207 19.7596 20.6952 19.5447C21.097 19.4459 21.479 19.3952 21.7627 19.3697C21.9034 19.3572 22.0164 19.3511 22.0918 19.348C22.1294 19.3465 22.1572 19.3459 22.1742 19.3456L22.1903 19.3453L22.202 19.3452Z" fill="#C73752"/>
<path d="M6.6665 13.3334C6.6665 11.0409 7.49304 8.94142 8.86434 7.31674C8.99925 7.50811 9.13446 7.71332 9.26534 7.93007C9.80058 8.81654 10.2163 9.81826 10.3011 10.797C10.5288 13.4251 12.2765 15.913 15.2405 15.9466C16.5229 15.9611 18.0757 14.9972 18.0716 13.3232C18.0706 12.9398 18.0104 12.5663 17.9229 12.2359C17.8808 12.0768 17.8868 11.947 17.9477 11.8167C18.175 11.3305 18.5106 11.0067 18.9686 10.6929C19.182 10.5467 19.4037 10.4145 19.6601 10.2615L19.7628 10.2002C20.0498 10.0286 20.3772 9.82995 20.6934 9.5943C21.1532 9.25172 21.7474 8.77062 22.0622 8.275C22.3116 7.8827 22.5425 7.37963 22.7214 6.85791C24.3386 8.53619 25.3332 10.8186 25.3332 13.3334C25.3332 14.0431 25.254 14.7344 25.1038 15.3988C25.014 15.665 24.902 15.9136 24.7002 16.1754C24.384 16.5858 23.7506 17.089 22.1788 17.1054H22.1708L22.1325 17.106C22.1009 17.1066 22.0574 17.1076 22.0034 17.1098C21.8956 17.114 21.7448 17.1224 21.5626 17.1388C21.2009 17.1712 20.7017 17.2364 20.1606 17.3694C19.1497 17.6179 17.6662 18.1824 16.9384 19.5542C16.364 20.6364 16.2993 21.7475 16.4286 22.657C16.2865 22.6635 16.1436 22.6667 15.9998 22.6667C10.8452 22.6667 6.6665 18.488 6.6665 13.3334Z" fill="#C73752"/>
<path fill-rule="evenodd" clip-rule="evenodd" d="M24.0048 1.99978C24.3731 1.58826 25.0054 1.55323 25.4168 1.92157C28.433 4.62109 30.3335 8.54727 30.3335 12.916C30.3335 20.5846 24.4818 26.8863 17.0002 27.5995V28.3334H18.6668C19.2191 28.3334 19.6668 28.7811 19.6668 29.3334C19.6668 29.8856 19.2191 30.3334 18.6668 30.3334H13.3335C12.7812 30.3334 12.3335 29.8856 12.3335 29.3334C12.3335 28.7811 12.7812 28.3334 13.3335 28.3334H15.0002V27.6554C10.8658 27.4947 7.16732 25.6315 4.58837 22.75C4.22004 22.3386 4.25507 21.7063 4.66659 21.338C5.07812 20.9696 5.71031 21.0047 6.07864 21.4163C8.4148 24.0264 11.8066 25.6667 15.5828 25.6667C22.6248 25.6667 28.3335 19.958 28.3335 12.916C28.3335 9.13979 26.6932 5.74799 24.0831 3.41183C23.6715 3.0435 23.6364 2.41131 24.0048 1.99978Z" fill="#C73752"/>
</svg>
