<svg width="20" height="20" viewBox="0 0 20 20" fill="none" xmlns="http://www.w3.org/2000/svg">
<path d="M10 7.33447C8.53022 7.33447 7.33435 8.53025 7.33435 10.0001C7.33435 11.4699 8.53022 12.6658 10 12.6658C11.4699 12.6658 12.6656 11.4699 12.6656 10.0001C12.6656 8.53025 11.4699 7.33447 10 7.33447V7.33447Z" fill="#C73752"/>
<path d="M13.2103 3H6.78967C4.70001 3 3 4.70001 3 6.78967V13.2104C3 15.3 4.70001 17 6.78967 17H13.2104C15.3 17 17 15.3 17 13.2104V6.78967C17 4.70001 15.3 3 13.2103 3V3ZM9.99999 13.828C7.88918 13.828 6.17198 12.1108 6.17198 9.99999C6.17198 7.88918 7.88918 6.17198 9.99999 6.17198C12.1108 6.17198 13.828 7.88918 13.828 9.99999C13.828 12.1108 12.1108 13.828 9.99999 13.828V13.828ZM13.9195 7.07475C13.2958 7.07475 12.7884 6.56739 12.7884 5.94361C12.7884 5.31984 13.2958 4.81237 13.9195 4.81237C14.5433 4.81237 15.0508 5.31984 15.0508 5.94361C15.0508 6.56739 14.5433 7.07475 13.9195 7.07475Z" fill="#C73752"/>
</svg>
