<svg width="18" height="18" viewBox="0 0 18 18" fill="none" xmlns="http://www.w3.org/2000/svg">
<path d="M12.4573 2.69958C13.396 2.69958 14.299 3.07058 14.9633 3.73628C15.6283 4.40059 16 5.29659 16 6.23459V11.7646C16 13.7176 14.411 15.2996 12.4573 15.2996H5.542C3.5883 15.2996 2 13.7176 2 11.7646V6.23459C2 4.28159 3.5813 2.69958 5.542 2.69958H12.4573ZM13.249 6.33959C13.102 6.33189 12.962 6.38159 12.8563 6.47959L9.7 8.99959C9.294 9.33629 8.7123 9.33629 8.3 8.99959L5.15 6.47959C4.9323 6.31859 4.6313 6.33959 4.45 6.52858C4.261 6.71759 4.24 7.01859 4.4003 7.22859L4.492 7.31959L7.677 9.80458C8.069 10.1126 8.5443 10.2806 9.042 10.2806C9.5383 10.2806 10.022 10.1126 10.4133 9.80458L13.571 7.27759L13.627 7.22159C13.7943 7.01859 13.7943 6.72459 13.6193 6.52159C13.522 6.41729 13.3883 6.35359 13.249 6.33959Z" fill="#3DA4CE"/>
</svg>
