<svg width="20" height="20" viewBox="0 0 20 20" fill="none" xmlns="http://www.w3.org/2000/svg">
<g clip-path="url(#clip0_423_161)">
<g clip-path="url(#clip1_423_161)">
<path d="M16.1337 6.51074C15.3348 6.51074 14.5976 6.24605 14.0056 5.79953C13.3266 5.28766 12.8388 4.5368 12.6666 3.67137C12.6233 3.45376 12.6006 3.23259 12.5987 3.01074H10.3164V9.2473L10.3136 12.6634C10.3136 13.5766 9.7189 14.351 8.89448 14.6234C8.64754 14.705 8.38745 14.7395 8.12777 14.7251C7.78433 14.7062 7.46249 14.6026 7.18277 14.4352C6.58749 14.0792 6.1839 13.4334 6.17296 12.6945C6.15573 11.5398 7.08925 10.5984 8.24316 10.5984C8.47093 10.5984 8.68968 10.6355 8.89448 10.7031V8.3857C8.67847 8.35371 8.45863 8.33703 8.23632 8.33703C6.97331 8.33703 5.79206 8.86203 4.94769 9.80785C4.30948 10.5226 3.92667 11.4345 3.86761 12.3907C3.79023 13.6469 4.24988 14.841 5.14128 15.722C5.27226 15.8514 5.4098 15.9714 5.55363 16.0821C6.31788 16.6703 7.25222 16.9891 8.23632 16.9891C8.45863 16.9891 8.67847 16.9727 8.89448 16.9407C9.81378 16.8046 10.662 16.3837 11.3314 15.722C12.1539 14.9091 12.6083 13.8298 12.6132 12.6811L12.6015 7.57988C12.9948 7.88325 13.4256 8.13452 13.8834 8.32746C14.5995 8.62961 15.3588 8.78273 16.1403 8.78246V6.5102C16.1409 6.51074 16.1343 6.51074 16.1337 6.51074Z" fill="#C73752"/>
</g>
</g>
<defs>
<clipPath id="clip0_423_161">
<rect width="14" height="14" fill="white" transform="translate(3 3)"/>
</clipPath>
<clipPath id="clip1_423_161">
<rect width="14" height="14" fill="white" transform="translate(3 3)"/>
</clipPath>
</defs>
</svg>
