<svg width="24" height="24" viewBox="0 0 24 24" fill="none" xmlns="http://www.w3.org/2000/svg">
    <path d="M16.7257 14.427C16.1702 13.959 15.9137 13.8175 15.1467 13.357C14.8272 13.1655 14.3402 13 14.0847 13C13.9102 13 13.7012 13.1335 13.5732 13.2615C13.2452 13.5895 13.1377 14 12.5627 14C12.0002 14 11.0177 13.4275 10.3127 12.6875C9.57274 11.9825 9.00024 11 9.00024 10.4375C9.00024 9.86251 9.40324 9.74751 9.73124 9.41901C9.85924 9.29151 10.0002 9.08251 10.0002 8.90801C10.0002 8.65251 9.83474 8.17301 9.64324 7.85351C9.18274 7.08601 9.04174 6.82951 8.57324 6.27451C8.41474 6.08651 8.23424 6.00051 8.04524 6.00001C7.72574 5.99951 7.30624 6.15801 7.02224 6.36951C6.59524 6.68801 6.14874 7.12151 6.02924 7.66151C6.01324 7.73501 6.00374 7.80901 6.00074 7.88301C5.97774 8.44551 6.19874 9.01651 6.43724 9.50001C6.99874 10.6395 7.74174 11.7425 8.55024 12.7275C8.80874 13.0425 9.09024 13.3355 9.38174 13.6185C9.66474 13.9095 9.95774 14.191 10.2727 14.45C11.2577 15.2585 12.3607 16.0015 13.5002 16.563C13.9792 16.799 14.5432 17.016 15.1002 17C15.1797 16.9975 15.2592 16.9885 15.3387 16.971C15.8787 16.852 16.3122 16.405 16.6307 15.978C16.8422 15.694 17.0007 15.275 17.0002 14.955C16.9997 14.766 16.9137 14.5855 16.7257 14.427ZM17.0002 12C16.7242 12 16.5002 11.776 16.5002 11.5V11C16.5002 8.51901 14.4812 6.50001 12.0002 6.50001C11.7242 6.50001 11.5002 6.27601 11.5002 6.00001C11.5002 5.72401 11.7242 5.50001 12.0002 5.50001C15.0327 5.50001 17.5002 7.96751 17.5002 11V11.5C17.5002 11.776 17.2762 12 17.0002 12ZM13.9292 11C13.7072 11 13.5042 10.851 13.4457 10.626C13.3087 10.1005 12.8987 9.69001 12.3752 9.55501C12.1077 9.48551 11.9472 9.21301 12.0162 8.94551C12.0852 8.67851 12.3572 8.51801 12.6257 8.58651C13.4997 8.81301 14.1847 9.49751 14.4132 10.3735C14.4827 10.641 14.3227 10.9135 14.0557 10.9835C14.0132 10.9945 13.9707 11 13.9292 11Z" fill="#7E57C2"/>
    <path d="M15.5002 11.5C15.2242 11.5 15.0002 11.276 15.0002 11C15.0002 9.406 13.7532 8.091 12.1612 8.007C11.8852 7.9925 11.6737 7.757 11.6882 7.4815C11.7027 7.2055 11.9422 6.9935 12.2137 7.0085C14.3372 7.1205 16.0002 8.874 16.0002 11C16.0002 11.276 15.7762 11.5 15.5002 11.5Z" fill="#7E57C2"/>
    <path d="M12.0003 2C9.75025 2 6.24425 2.207 4.10825 4.158C2.59825 5.6615 2.00025 7.7705 2.00025 10.5C2.00025 10.726 1.99925 10.978 2.00125 11.25C1.99925 11.5215 2.00025 11.7735 2.00025 11.9995C2.00025 14.729 2.59825 16.838 4.10825 18.3415C4.35935 18.5708 4.62963 18.7759 4.91466 18.9594C6.05961 19.6963 7.00025 20.8259 7.00025 22.1875C7.00025 22.9855 7.52475 23 7.62075 23H7.62525C7.87225 22.999 8.08575 22.878 8.29975 22.688C8.3482 22.645 8.70418 22.2526 9.20036 21.6999C9.9089 20.9108 10.9392 20.5 11.9998 20.5C14.2498 20.5 17.7553 20.2925 19.8918 18.3415C21.4013 16.8385 21.9998 14.729 21.9998 11.9995C21.9998 11.7735 22.0008 11.5215 21.9988 11.2495C22.0008 10.9775 21.9998 10.726 21.9998 10.4995C21.9998 7.77 21.4018 5.661 19.8918 4.1575C17.7558 2.207 14.2503 2 12.0003 2ZM20.5003 11.8255V11.9995C20.5003 14.4525 19.9778 16.124 18.8573 17.2555C16.9163 19 13.2188 19 11.9998 19C11.7287 19 11.3344 18.9997 10.8645 18.9803C10.5186 18.966 10.1814 19.1012 9.9507 19.3594C9.82063 19.505 9.66617 19.6779 9.50197 19.8616C8.97558 20.4506 8.00025 20.0782 8.00025 19.2883C8.00025 18.8905 7.72598 18.5491 7.34638 18.43C6.52679 18.173 5.74918 17.8002 5.14325 17.256C4.02275 16.124 3.50025 14.4525 3.50025 11.9995V11.8255C3.50025 11.65 3.49975 11.4605 3.50125 11.239C3.49975 11.039 3.49975 10.85 3.50025 10.674V10.5C3.50025 8.047 4.02275 6.3755 5.14325 5.244C7.08375 3.4995 10.7818 3.4995 12.0003 3.4995C13.2188 3.4995 16.9163 3.4995 18.8568 5.244C19.9778 6.3755 20.4998 8.047 20.4998 10.5V10.674C20.4998 10.8495 20.5003 11.039 20.4988 11.2605C20.5003 11.461 20.5003 11.65 20.5003 11.8255Z" fill="#7E57C2"/>
</svg>
